<svg width="269" height="100" viewBox="0 0 269 100" fill="none" xmlns="http://www.w3.org/2000/svg">
<path d="M86.9373 85.6618C82.4049 90.0207 77.4049 93.9108 71.2036 96.3456C65.0455 98.7826 58.3313 100 51.0613 100C43.7485 100 36.9702 98.761 30.7266 96.2821C24.5257 93.761 19.1159 90.2564 14.4973 85.7692C9.9215 81.239 6.35059 75.9405 3.7847 69.8718C1.2616 63.8034 0 57.1795 0 50C0 42.8205 1.2616 36.1966 3.7847 30.1282C6.35059 24.0598 9.9215 18.7821 14.4973 14.2949C19.1159 9.76492 24.5257 6.26072 30.7266 3.78205C36.9702 1.26072 43.7485 0 51.0613 0C58.2886 0 64.9603 1.23928 71.0753 3.71795C73.4159 4.64377 75.639 5.70849 77.7447 6.91211C83.3385 10.1094 83.3911 17.6557 78.85 22.2264L77.1008 23.9871C73.0509 28.0635 66.2824 27.3541 61.1966 24.6795C57.9892 22.9701 54.4825 22.1154 50.6764 22.1154C47.1697 22.1154 43.9196 22.8205 40.926 24.2308C37.9325 25.641 35.3024 27.6069 33.0359 30.1282C30.8121 32.6495 29.0801 35.5983 27.84 38.9744C26.5998 42.3505 25.9797 46.0043 25.9797 49.9359C25.9797 53.9103 26.5998 57.5854 27.84 60.9615C29.0801 64.3376 30.8121 67.3077 33.0359 69.8718C35.3024 72.3928 37.9325 74.359 40.926 75.7692C43.9196 77.1795 47.1697 77.8841 50.6764 77.8841C54.4825 77.8841 57.9892 77.0297 61.1966 75.32C64.404 73.6113 69.3166 69.2303 70.0634 68.75L86.9373 85.6618Z" fill="#8747FF"/>
<path d="M70.0634 68.75L86.9373 85.6618C86.9373 85.6618 101.243 70.2206 93.9069 62.5C86.5704 54.7794 70.0634 68.75 70.0634 68.75Z" fill="#8747FF"/>
<path d="M113.035 80.66C110.725 80.66 108.8 80.2933 107.26 79.56C105.757 78.8267 104.638 77.8367 103.905 76.59C103.208 75.3067 102.86 73.895 102.86 72.355C102.86 70.705 103.263 69.2567 104.07 68.01C104.913 66.7267 106.215 65.7183 107.975 64.985C109.735 64.215 111.953 63.83 114.63 63.83H121.34C121.34 62.5833 121.175 61.5567 120.845 60.75C120.552 59.9433 120.057 59.3383 119.36 58.935C118.663 58.5317 117.71 58.33 116.5 58.33C115.217 58.33 114.135 58.5867 113.255 59.1C112.375 59.6133 111.825 60.42 111.605 61.52H103.685C103.868 59.54 104.51 57.8167 105.61 56.35C106.747 54.8833 108.25 53.7283 110.12 52.885C111.99 52.0417 114.135 51.62 116.555 51.62C119.195 51.62 121.487 52.06 123.43 52.94C125.373 53.7833 126.877 55.03 127.94 56.68C129.04 58.33 129.59 60.3833 129.59 62.84V80H122.715L121.725 75.985C121.322 76.6817 120.845 77.3233 120.295 77.91C119.745 78.46 119.103 78.955 118.37 79.395C117.637 79.7983 116.83 80.11 115.95 80.33C115.07 80.55 114.098 80.66 113.035 80.66ZM115.07 74.39C115.95 74.39 116.72 74.2433 117.38 73.95C118.04 73.6567 118.608 73.2533 119.085 72.74C119.562 72.2267 119.947 71.64 120.24 70.98C120.57 70.2833 120.808 69.5317 120.955 68.725V68.67H115.62C114.703 68.67 113.933 68.7983 113.31 69.055C112.723 69.275 112.283 69.605 111.99 70.045C111.697 70.485 111.55 70.9983 111.55 71.585C111.55 72.2083 111.697 72.74 111.99 73.18C112.32 73.5833 112.742 73.895 113.255 74.115C113.805 74.2983 114.41 74.39 115.07 74.39ZM149.265 80C147.248 80 145.47 79.6883 143.93 79.065C142.39 78.405 141.198 77.3417 140.355 75.875C139.512 74.4083 139.09 72.41 139.09 69.88V59.155H134.36V52.28H139.09L139.97 44.47H147.34V52.28H154.435V59.155H147.34V69.99C147.34 71.09 147.578 71.8783 148.055 72.355C148.568 72.795 149.43 73.015 150.64 73.015H154.435V80H149.265ZM173.773 80.66C170.913 80.66 168.401 80.0733 166.238 78.9C164.074 77.69 162.369 76.0217 161.123 73.895C159.913 71.7317 159.308 69.2567 159.308 66.47C159.308 63.61 159.913 61.0617 161.123 58.825C162.333 56.5883 164.019 54.8283 166.183 53.545C168.346 52.2617 170.858 51.62 173.718 51.62C176.504 51.62 178.943 52.225 181.033 53.435C183.123 54.645 184.754 56.295 185.928 58.385C187.138 60.4383 187.743 62.8217 187.743 65.535C187.743 65.9017 187.724 66.3233 187.688 66.8C187.688 67.24 187.651 67.6983 187.578 68.175H165.193V63.39H179.328C179.254 61.85 178.686 60.6217 177.623 59.705C176.596 58.7517 175.313 58.275 173.773 58.275C172.599 58.275 171.536 58.55 170.583 59.1C169.629 59.65 168.859 60.475 168.273 61.575C167.723 62.675 167.448 64.0683 167.448 65.755V67.405C167.448 68.6883 167.686 69.825 168.163 70.815C168.676 71.805 169.391 72.575 170.308 73.125C171.261 73.675 172.379 73.95 173.663 73.95C174.873 73.95 175.863 73.7117 176.633 73.235C177.439 72.7217 178.063 72.08 178.503 71.31H186.918C186.404 73.07 185.524 74.665 184.278 76.095C183.031 77.4883 181.509 78.6067 179.713 79.45C177.916 80.2567 175.936 80.66 173.773 80.66ZM193.809 80V52.28H201.124L201.894 57.34C202.628 56.1667 203.489 55.1583 204.479 54.315C205.469 53.4717 206.606 52.8117 207.889 52.335C209.209 51.8583 210.621 51.62 212.124 51.62V60.365H209.374C208.274 60.365 207.266 60.4933 206.349 60.75C205.469 60.97 204.699 61.355 204.039 61.905C203.416 62.455 202.921 63.2067 202.554 64.16C202.224 65.0767 202.059 66.2317 202.059 67.625V80H193.809ZM218.06 80V50.3C218.06 47.88 218.482 45.955 219.325 44.525C220.168 43.0583 221.342 42.0133 222.845 41.39C224.385 40.73 226.145 40.4 228.125 40.4H231.645V47.385H229.445C228.308 47.385 227.502 47.605 227.025 48.045C226.548 48.485 226.31 49.2367 226.31 50.3V80H218.06ZM214.43 59.155V52.28H232.03V59.155H214.43ZM241.484 92.1L248.139 76.92H246.489L235.324 52.28H244.289L251.934 69.165L258.314 52.28H267.169L250.229 92.1H241.484Z" fill="#8747FF"/>
</svg>
