<svg width="757" height="521" viewBox="0 0 757 521" fill="none" xmlns="http://www.w3.org/2000/svg">
<path d="M637.328 348.123C636.868 350.148 636.048 351.999 634.95 353.624C631.296 359.034 624.567 361.94 617.828 360.411C611.089 358.882 606.272 353.357 605.311 346.9C605.022 344.96 605.081 342.937 605.54 340.912L594.051 338.305C593.604 340.275 593.377 342.244 593.354 344.188C593.199 357.138 602.093 368.922 615.222 371.9C628.351 374.879 641.458 368.087 646.907 356.337C647.725 354.574 648.37 352.7 648.817 350.73L637.328 348.123Z" fill="#642AD0"/>
<path d="M699.335 398.517C699.335 398.517 670.326 355.379 664.825 349.878C659.325 344.378 640.216 342.553 638.825 342.238L585.205 330.258C583.814 329.943 582.355 330.143 581.099 330.821L527.855 359.614C525.17 361.067 524.039 364.329 525.25 367.131L538.847 398.607C540.136 401.586 543.593 402.962 546.578 401.684L559.499 396.143L544.082 461.823C543.905 462.58 543.879 463.364 544.006 464.131C544.133 464.898 544.41 465.632 544.822 466.292C545.234 466.951 545.772 467.522 546.405 467.972C547.039 468.423 547.755 468.743 548.513 468.915L633.534 488.204C634.292 488.375 635.077 488.395 635.843 488.262C636.609 488.13 637.341 487.847 637.997 487.43C638.653 487.013 639.22 486.47 639.665 485.833C640.111 485.196 640.426 484.478 640.592 483.718L655.026 417.815L664.289 428.389C666.431 430.83 670.141 431.084 672.592 428.95L698.441 406.423C700.743 404.418 701.13 400.987 699.335 398.517ZM669.283 416.211L656.202 401.28C655.483 400.461 654.551 399.856 653.51 399.535C652.468 399.213 651.358 399.185 650.302 399.456C649.246 399.727 648.286 400.286 647.529 401.071C646.773 401.855 646.249 402.835 646.016 403.9L630.354 475.402L556.909 458.739L573.634 387.475C573.883 386.413 573.833 385.304 573.489 384.27C573.145 383.235 572.52 382.317 571.685 381.616C570.85 380.917 569.837 380.462 568.759 380.303C567.681 380.144 566.579 380.287 565.578 380.716L547.334 388.541L538.205 367.411L584.757 342.237L593.354 344.188L605.311 346.9L634.95 353.624L646.907 356.337L655.504 358.288L686.635 401.089L669.283 416.211Z" fill="#642AD0"/>
<path d="M615.222 371.9C602.093 368.922 593.199 357.138 593.354 344.188L584.757 342.237L538.205 367.411L547.334 388.541L565.578 380.716C566.579 380.287 567.681 380.144 568.759 380.303C569.837 380.462 570.85 380.917 571.685 381.616C572.52 382.317 573.145 383.235 573.489 384.27C573.833 385.304 573.883 386.413 573.634 387.475L556.909 458.739L630.354 475.402L646.016 403.9C646.249 402.835 646.773 401.855 647.529 401.071C648.286 400.286 649.246 399.727 650.302 399.456C651.358 399.185 652.468 399.213 653.51 399.535C654.551 399.856 655.483 400.461 656.202 401.28L669.283 416.211L686.635 401.089L655.504 358.288L646.907 356.337C641.458 368.087 628.351 374.879 615.222 371.9Z" fill="#9B51FF"/>
<path d="M617.828 360.411C624.567 361.94 631.296 359.034 634.95 353.624L605.311 346.9C606.272 353.357 611.089 358.882 617.828 360.411Z" fill="#FFF1FF"/>
<path d="M139.035 211.195C135.11 190.893 149.919 171.552 170.585 170.841C281.543 167.023 587.842 157.833 599.5 172.272C609.611 184.795 609.593 261.593 608.731 305.127C608.393 322.177 595.036 335.839 578.005 336.722C470.813 342.276 113.383 360.904 141.333 360.904C164.579 360.904 149.711 266.425 139.035 211.195Z" fill="#9B51FF"/>
<path d="M285.326 198.106C293.39 197.659 300.911 198.633 307.886 201.025C310.545 201.913 313.084 202.962 315.5 204.172C321.946 207.401 322.47 215.859 317.677 221.258L315.854 223.31C311.582 228.121 303.991 227.744 298.15 225.067C294.467 223.355 290.501 222.617 286.255 222.852C282.342 223.068 278.758 224.057 275.505 225.818C272.251 227.58 269.438 229.94 267.063 232.898C264.737 235.854 262.986 239.258 261.81 243.108C260.633 246.959 260.165 251.082 260.406 255.477C260.65 259.919 261.568 263.99 263.159 267.688C264.75 271.385 266.865 274.597 269.504 277.326C272.187 280.004 275.242 282.04 278.669 283.432C282.096 284.823 285.766 285.41 289.679 285.193C293.925 284.958 297.786 283.786 301.26 281.677C304.733 279.569 309.944 274.369 310.749 273.785C310.805 273.732 328.324 257.161 336.97 265.325C345.614 273.489 330.665 291.587 330.615 291.648C325.826 296.8 320.485 301.458 313.716 304.563C306.994 307.667 299.577 309.443 291.466 309.893C283.306 310.344 275.666 309.378 268.548 306.992C261.475 304.557 255.224 300.974 249.795 296.243C244.411 291.462 240.101 285.759 236.865 279.134C233.678 272.506 231.864 265.179 231.423 257.153C230.982 249.128 231.983 241.646 234.426 234.706C236.916 227.764 240.576 221.643 245.406 216.345C250.281 210.996 256.103 206.744 262.869 203.59C269.681 200.386 277.167 198.557 285.326 198.106ZM503.145 242.795C503.918 242.752 504.856 242.938 505.956 243.354C507.097 243.723 508.096 244.252 508.953 244.94C509.81 245.629 510.265 246.449 510.317 247.398C510.341 247.83 510.274 248.201 510.119 248.513L502.223 271.939C501.517 274.012 500.853 276.041 500.229 278.023C499.604 280.006 498.755 281.807 497.68 283.425C496.647 285.041 495.167 286.356 493.239 287.372C491.314 288.431 488.718 289.052 485.452 289.232C484.163 289.304 483.053 289.127 482.124 288.702C481.238 288.275 480.744 287.112 480.64 285.213C480.578 284.091 480.696 283.11 480.995 282.271C481.337 281.429 481.96 280.984 482.862 280.934C483.464 280.9 484.255 280.792 485.236 280.607C486.22 280.466 487.215 280.108 488.218 279.533C489.266 278.999 490.102 278.129 490.726 276.926C491.395 275.763 491.674 274.168 491.562 272.14L479.042 250.233C478.803 249.814 478.672 249.389 478.648 248.957C478.601 248.094 478.943 247.274 479.677 246.497C480.41 245.721 481.281 245.087 482.289 244.599C483.34 244.108 484.296 243.839 485.155 243.791C485.757 243.758 486.323 243.857 486.853 244.087C487.38 244.274 487.769 244.664 488.017 245.256L496.266 262.398L500.654 244.557C500.836 243.941 501.157 243.511 501.618 243.269C502.12 242.981 502.629 242.824 503.145 242.795ZM357.629 250.917C361.153 250.722 364.024 251.169 366.239 252.259C368.455 253.348 370.11 254.837 371.205 256.725C372.298 258.569 372.905 260.592 373.026 262.793L373.872 278.201C373.919 279.064 373.487 279.825 372.575 280.482C371.706 281.136 370.561 281.502 369.143 281.58C367.896 281.649 366.826 281.405 365.934 280.849C365.041 280.292 364.571 279.582 364.523 278.719L364.445 277.295C363.358 278.697 362.07 279.981 360.582 281.146C359.092 282.267 357.207 282.89 354.929 283.017C352.694 283.14 350.722 282.557 349.013 281.267C347.301 279.933 346.364 277.798 346.203 274.863C346.063 272.317 346.599 270.296 347.811 268.8C349.022 267.304 350.729 266.213 352.934 265.528C355.181 264.841 357.788 264.416 360.754 264.252L363.075 264.123L363.039 263.476C362.999 262.742 362.808 262.017 362.467 261.3C362.126 260.583 361.598 260.005 360.885 259.568C360.169 259.089 359.187 258.883 357.94 258.952C356.178 259.05 354.877 259.296 354.036 259.689C353.196 260.081 352.549 260.485 352.098 260.899C351.644 261.271 351.115 261.474 350.514 261.507C349.439 261.566 348.571 261.073 347.91 260.027C347.292 258.979 346.952 257.872 346.888 256.707C346.831 255.671 347.362 254.733 348.479 253.892C349.64 253.048 351.047 252.364 352.699 251.84C354.395 251.313 356.039 251.005 357.629 250.917ZM382.02 236.514C383.266 236.445 384.421 236.662 385.483 237.166C386.589 237.668 387.166 238.372 387.216 239.278L387.785 249.637L395.071 249.233C395.888 249.189 396.511 249.544 396.94 250.299C397.41 251.009 397.669 251.796 397.717 252.659C397.766 253.565 397.596 254.397 397.207 255.154C396.861 255.909 396.278 256.31 395.462 256.356L388.176 256.759L388.877 269.513C388.929 270.462 389.159 271.121 389.567 271.488C389.973 271.812 390.671 271.946 391.659 271.892L394.432 271.738C395.893 271.658 396.992 272.051 397.729 272.919C398.464 273.744 398.861 274.675 398.918 275.711C398.977 276.79 398.686 277.781 398.046 278.682C397.406 279.583 396.355 280.073 394.894 280.154L392.121 280.308C388.038 280.534 384.852 279.844 382.565 278.239C380.319 276.589 379.091 273.865 378.883 270.066L377.222 239.832C377.172 238.926 377.669 238.162 378.713 237.541C379.757 236.921 380.859 236.578 382.02 236.514ZM414.739 247.755C417.232 247.617 419.539 248.009 421.659 248.931C423.822 249.85 425.6 251.202 426.991 252.986C428.38 254.728 429.142 256.828 429.277 259.288C429.384 261.23 429.138 262.651 428.541 263.55C427.984 264.403 427.218 264.966 426.241 265.236C425.305 265.461 424.342 265.601 423.354 265.655L410.909 266.345L410.931 266.733C411.018 268.33 411.691 269.592 412.949 270.518C414.205 271.4 415.822 271.787 417.799 271.678C419.131 271.604 420.26 271.347 421.185 270.906C422.106 270.422 422.922 269.966 423.632 269.537C424.341 269.108 425.04 268.874 425.728 268.836C426.501 268.793 427.182 269.015 427.769 269.502C428.356 269.989 428.798 270.571 429.094 271.247C429.432 271.921 429.616 272.517 429.645 273.035C429.689 273.855 429.242 274.746 428.304 275.707C427.365 276.668 426.01 277.522 424.24 278.27C422.511 278.971 420.422 279.391 417.972 279.526C414.791 279.703 411.944 279.297 409.433 278.311C406.919 277.281 404.895 275.769 403.363 273.776C401.874 271.781 401.055 269.423 400.905 266.704L400.646 261.978C400.513 259.561 401.057 257.301 402.278 255.198C403.499 253.096 405.195 251.379 407.363 250.047C409.53 248.672 411.988 247.907 414.739 247.755ZM451.948 245.694C452.894 245.642 453.735 246.029 454.47 246.854C455.248 247.676 455.669 248.671 455.733 249.836C455.8 251.044 455.491 252.1 454.808 253.004C454.167 253.905 453.374 254.382 452.429 254.435L450.559 254.538C449.398 254.602 448.303 255.075 447.273 255.954C446.242 256.791 445.421 257.94 444.812 259.402C444.202 260.865 443.952 262.589 444.061 264.574L444.594 274.285C444.636 275.062 444.181 275.802 443.229 276.504C442.276 277.206 441.089 277.596 439.671 277.675C438.253 277.753 437.052 277.495 436.071 276.9C435.133 276.303 434.642 275.616 434.6 274.839L433.245 250.172C433.195 249.266 433.607 248.507 434.479 247.896C435.393 247.282 436.56 246.936 437.979 246.857C439.225 246.789 440.293 247.011 441.184 247.524C442.074 248.038 442.545 248.748 442.595 249.654L442.726 252.05C443.103 251.077 443.656 250.137 444.382 249.231C445.149 248.279 446.011 247.496 446.969 246.88C447.967 246.219 449.005 245.857 450.079 245.798L451.948 245.694ZM473.541 227.225C474.787 227.156 475.736 227.558 476.388 228.431C477.08 229.258 477.455 230.191 477.512 231.227C477.571 232.305 477.301 233.295 476.704 234.193C476.15 235.09 475.249 235.573 474.003 235.642L471.553 235.777C470.865 235.816 470.249 235.98 469.704 236.27C469.203 236.557 468.815 236.969 468.543 237.503C468.268 237.994 468.154 238.65 468.199 239.47L468.512 245.167L475.798 244.764C476.614 244.719 477.238 245.074 477.667 245.829C478.137 246.539 478.396 247.326 478.443 248.189C478.493 249.095 478.323 249.927 477.934 250.685C477.587 251.44 477.005 251.84 476.188 251.886L468.902 252.289L470.037 272.941C470.087 273.848 469.611 274.61 468.61 275.229C467.653 275.844 466.486 276.19 465.11 276.267C463.735 276.343 462.558 276.126 461.582 275.617C460.606 275.109 460.093 274.401 460.043 273.495L458.266 241.124C458.128 238.621 458.521 236.369 459.446 234.369C460.369 232.327 461.66 230.697 463.317 229.48C464.975 228.262 466.835 227.597 468.898 227.482L473.541 227.225ZM363.084 268.993C361.881 269.06 360.724 269.21 359.616 269.444C358.549 269.633 357.686 270.007 357.026 270.563C356.408 271.073 356.127 271.846 356.184 272.882C356.236 273.831 356.51 274.509 357.006 274.914C357.502 275.319 358.117 275.502 358.848 275.462C359.535 275.424 360.231 275.126 360.933 274.567C361.632 273.966 362.216 273.198 362.682 272.263C363.191 271.325 363.415 270.316 363.355 269.237L363.342 268.979L363.084 268.993ZM414.944 255.017C414.171 255.059 413.426 255.252 412.712 255.595C412.038 255.892 411.482 256.356 411.042 256.986C410.643 257.571 410.467 258.295 410.515 259.158L410.601 260.712L418.596 260.27C419.068 260.243 419.406 260.116 419.609 259.889C419.812 259.661 419.897 259.245 419.864 258.641C419.817 257.778 419.541 257.078 419.037 256.543C418.574 255.963 417.97 255.563 417.226 255.345C416.521 255.081 415.761 254.972 414.944 255.017Z" fill="#FFF1FF"/>
<path d="M106.719 391.511L120.825 387.518C136.302 383.137 152.885 385.084 166.926 392.93C180.967 400.775 191.317 413.878 195.698 429.354C196.027 430.518 195.881 431.765 195.291 432.821C194.701 433.876 193.716 434.655 192.552 434.984L70.4688 469.541C69.3052 469.871 68.0583 469.724 67.0026 469.134C65.9469 468.545 65.1687 467.559 64.8393 466.396C62.6691 458.729 62.031 450.709 62.9614 442.796C63.8919 434.882 66.3727 427.229 70.262 420.275C74.1514 413.321 79.373 407.201 85.6286 402.265C91.8841 397.33 99.051 393.675 106.719 391.511Z" fill="#9B51FF"/>
<path d="M190.603 435.465L72.4465 468.91L76.8741 484.552L195.031 451.106L190.603 435.465Z" fill="#642AD0"/>
<path d="M74.7681 485.148L197.137 450.51C197.69 450.353 198.268 450.307 198.839 450.374C199.41 450.441 199.962 450.62 200.464 450.901C200.966 451.181 201.408 451.558 201.764 452.009C202.12 452.46 202.384 452.977 202.541 453.53C204.75 461.334 203.77 469.696 199.816 476.778C195.863 483.86 189.259 489.083 181.456 491.297L109.522 511.659C101.714 513.87 93.3479 512.887 86.2639 508.929C79.1799 504.971 73.9585 498.361 71.7483 490.552C71.5917 489.999 71.5456 489.421 71.6127 488.85C71.6797 488.279 71.8585 487.727 72.1389 487.225C72.4193 486.723 72.7958 486.281 73.2469 485.925C73.6981 485.569 74.2149 485.305 74.7681 485.148Z" fill="#9B51FF"/>
<path d="M150.184 479.013L126.651 470.462L183.689 454.317L168.151 473.927C166.069 476.554 163.214 478.459 159.989 479.372C156.764 480.285 153.333 480.159 150.184 479.013Z" fill="#642AD0"/>
<path d="M724.272 123.289C727.727 148.922 721.425 174.918 706.617 196.124C704.662 198.935 701.747 200.933 698.42 201.74C695.093 202.548 691.586 202.109 688.561 200.506L592.201 149.158C590.795 148.409 589.589 147.336 588.681 146.028C587.772 144.719 587.189 143.214 586.978 141.635C586.767 140.057 586.934 138.451 587.467 136.95C588 135.449 588.882 134.097 590.041 133.005L669.531 58.1642C672.029 55.8238 675.298 54.4794 678.72 54.385C682.142 54.2907 685.48 55.4528 688.104 57.652C707.962 74.2231 720.871 97.6493 724.272 123.289ZM595.623 140.488C595.648 140.695 595.723 140.892 595.841 141.062C595.96 141.233 596.118 141.372 596.302 141.468L622.704 155.537L630.45 159.665L645.906 167.901L653.654 172.03L677.92 184.96L685.655 189.082L692.662 192.816C693.806 193.421 695.132 193.585 696.389 193.277C697.645 192.968 698.744 192.209 699.478 191.143C713.014 171.714 718.781 147.919 715.644 124.448C712.506 100.978 700.69 79.5337 682.525 64.3429C681.538 63.5068 680.278 63.0628 678.984 63.0951C677.691 63.1274 676.454 63.6339 675.51 64.5182L669.731 69.9607L663.352 75.9677L596.023 139.376C595.871 139.516 595.756 139.69 595.687 139.883C595.617 140.077 595.595 140.285 595.623 140.488Z" fill="#642AD0"/>
<path d="M700.129 126.517C703.035 148.251 697.902 170.323 685.655 189.082C684.997 190.089 684.319 191.087 683.621 192.075C682.953 193.02 681.936 193.661 680.796 193.856C679.655 194.052 678.483 193.786 677.538 193.118C676.593 192.45 675.952 191.434 675.757 190.293C675.561 189.152 675.826 187.98 676.495 187.036C676.98 186.349 677.456 185.657 677.92 184.96C689.336 167.815 694.146 147.575 691.485 127.672C688.823 107.762 678.856 89.5052 663.352 75.9677C662.661 75.3643 661.959 74.7702 661.246 74.1857C660.351 73.4528 659.784 72.3945 659.669 71.2434C659.555 70.0924 659.902 68.943 660.635 68.0481C661.368 67.1532 662.426 66.5861 663.577 66.4716C664.728 66.357 665.878 66.7044 666.773 67.4373C667.778 68.2611 668.765 69.1025 669.731 69.9607C686.474 84.8334 697.222 104.775 700.129 126.517ZM656.26 160.244C656.633 163.052 656.324 165.909 655.358 168.571C654.917 169.787 654.345 170.947 653.654 172.03C652.833 173.318 651.845 174.499 650.711 175.539C649.858 176.322 648.729 176.733 647.573 176.683C646.417 176.633 645.328 176.126 644.546 175.273C643.763 174.42 643.352 173.291 643.402 172.135C643.452 170.978 643.959 169.889 644.812 169.107C645.215 168.738 645.581 168.334 645.906 167.901C646.42 167.219 646.833 166.463 647.132 165.657C647.621 164.34 647.79 162.925 647.624 161.529C647.458 160.133 646.963 158.797 646.179 157.631C645.395 156.464 644.346 155.501 643.116 154.82C641.887 154.139 640.513 153.76 639.108 153.715C637.704 153.67 636.308 153.959 635.037 154.559C633.767 155.159 632.657 156.053 631.799 157.167C631.216 157.924 630.761 158.768 630.45 159.665C630.303 160.087 630.188 160.521 630.106 160.963C630.012 161.535 629.804 162.082 629.496 162.573C629.188 163.064 628.785 163.488 628.311 163.821C627.837 164.154 627.301 164.39 626.735 164.513C626.169 164.637 625.584 164.647 625.015 164.542C624.445 164.437 623.902 164.22 623.417 163.903C622.932 163.585 622.515 163.175 622.191 162.695C621.866 162.215 621.641 161.675 621.527 161.106C621.414 160.538 621.415 159.953 621.53 159.385C621.775 158.053 622.17 156.762 622.704 155.537C623.819 152.974 625.538 150.695 627.737 148.908C630.988 146.266 635.075 144.872 639.262 144.975C643.45 145.079 647.463 146.674 650.579 149.473C653.695 152.272 655.709 156.092 656.26 160.244Z" fill="#642AD0"/>
<path d="M685.655 189.082L692.662 192.816C693.806 193.421 695.132 193.585 696.389 193.277C697.645 192.968 698.744 192.209 699.478 191.143C713.014 171.714 718.781 147.919 715.644 124.448C712.506 100.978 700.69 79.5337 682.525 64.3429C681.538 63.5068 680.278 63.0628 678.984 63.0951C677.691 63.1274 676.454 63.6339 675.51 64.5182L669.731 69.9607C686.474 84.8334 697.222 104.775 700.129 126.517C703.035 148.251 697.902 170.323 685.655 189.082Z" fill="#642AD0"/>
<path d="M595.623 140.488C595.648 140.695 595.723 140.892 595.841 141.062C595.96 141.233 596.118 141.372 596.302 141.468L622.704 155.537C623.819 152.974 625.538 150.695 627.737 148.908C630.988 146.266 635.075 144.872 639.262 144.975C643.45 145.079 647.463 146.674 650.579 149.473C653.695 152.272 655.709 156.092 656.26 160.244C656.633 163.052 656.324 165.909 655.358 168.571C654.917 169.787 654.345 170.947 653.654 172.03L677.92 184.96C689.336 167.815 694.146 147.575 691.485 127.672C688.823 107.762 678.856 89.5052 663.352 75.9677L596.023 139.376C595.871 139.516 595.756 139.69 595.687 139.883C595.617 140.077 595.595 140.285 595.623 140.488Z" fill="#9B51FF"/>
<path d="M634.08 131.809C634.19 132.634 634.062 133.474 633.71 134.228C633.358 134.983 632.798 135.621 632.095 136.067C631.392 136.513 630.577 136.749 629.744 136.746C628.912 136.743 628.097 136.503 627.397 136.052L623.816 133.744C622.843 133.118 622.159 132.132 621.913 131.001C621.668 129.871 621.882 128.689 622.508 127.716C623.134 126.743 624.121 126.059 625.252 125.814C626.382 125.569 627.564 125.783 628.537 126.409L632.118 128.716C632.65 129.058 633.101 129.512 633.44 130.047C633.779 130.581 633.997 131.182 634.08 131.809ZM677.392 150.491C677.476 151.117 677.423 151.754 677.237 152.358C677.05 152.962 676.734 153.518 676.311 153.988L673.462 157.155C673.079 157.58 672.615 157.926 672.098 158.173C671.582 158.42 671.021 158.562 670.449 158.592C669.878 158.622 669.305 158.539 668.766 158.348C668.226 158.157 667.729 157.861 667.303 157.478C666.878 157.095 666.532 156.632 666.285 156.115C666.039 155.598 665.896 155.038 665.866 154.466C665.836 153.894 665.919 153.322 666.11 152.782C666.301 152.242 666.597 151.745 666.98 151.32L669.83 148.152C670.387 147.534 671.109 147.087 671.912 146.866C672.714 146.645 673.563 146.658 674.359 146.904C675.154 147.15 675.862 147.618 676.4 148.254C676.937 148.889 677.282 149.666 677.392 150.491Z" fill="#642AD0"/>
<path d="M678.872 118.582C679.334 122.03 678.763 125.537 677.231 128.659C675.699 131.782 673.276 134.38 670.268 136.126C667.259 137.871 663.801 138.685 660.33 138.465C656.859 138.245 653.531 137 650.767 134.889C648.003 132.777 645.928 129.894 644.803 126.602C643.678 123.311 643.555 119.761 644.448 116.399C645.341 113.038 647.211 110.017 649.822 107.718C652.432 105.42 655.665 103.947 659.113 103.486C663.734 102.873 668.41 104.118 672.114 106.948C675.819 109.778 678.249 113.962 678.872 118.582ZM652.651 122.088C652.883 123.826 653.625 125.456 654.783 126.772C655.941 128.088 657.464 129.031 659.158 129.482C660.852 129.933 662.642 129.871 664.301 129.304C665.961 128.738 667.414 127.692 668.479 126.299C669.544 124.906 670.172 123.229 670.283 121.479C670.394 119.73 669.984 117.986 669.105 116.47C668.225 114.953 666.916 113.731 665.342 112.959C663.768 112.187 662 111.899 660.263 112.131C657.935 112.446 655.828 113.671 654.402 115.537C652.976 117.404 652.349 119.759 652.657 122.087L652.651 122.088Z" fill="#642AD0"/>
<path d="M652.651 122.088C652.883 123.826 653.625 125.456 654.783 126.772C655.941 128.088 657.464 129.031 659.158 129.482C660.852 129.933 662.642 129.871 664.301 129.304C665.961 128.738 667.414 127.692 668.479 126.299C669.544 124.906 670.172 123.229 670.283 121.479C670.394 119.73 669.984 117.986 669.105 116.47C668.225 114.953 666.916 113.731 665.342 112.959C663.768 112.187 662 111.899 660.263 112.131C657.935 112.446 655.828 113.671 654.402 115.537C652.976 117.404 652.349 119.759 652.657 122.087L652.651 122.088Z" fill="#FFF1FF"/>
<path d="M647.132 165.657C647.621 164.34 647.79 162.925 647.624 161.529C647.458 160.133 646.963 158.797 646.179 157.631C645.395 156.464 644.346 155.501 643.116 154.82C641.887 154.139 640.513 153.76 639.108 153.715C637.704 153.67 636.308 153.959 635.037 154.559C633.767 155.159 632.657 156.053 631.799 157.167C631.216 157.924 630.761 158.768 630.45 159.665L645.906 167.901C646.42 167.219 646.833 166.463 647.132 165.657Z" fill="#FFF1FF"/>
<path d="M142.89 106.548L138.738 92.3177C134.697 78.4675 125.319 66.7899 112.668 59.8539C100.017 52.9179 85.1282 51.2916 71.278 55.3329C57.4277 59.3741 45.7501 68.7518 38.8141 81.403C31.8781 94.0542 30.2519 108.943 34.2931 122.793L38.4453 137.023C35.029 139.482 32.4566 142.936 31.0809 146.914C29.7052 150.892 29.5934 155.197 30.761 159.241L34.5703 172.297C36.0858 177.491 39.6025 181.87 44.3466 184.471C49.0908 187.072 54.674 187.682 59.8678 186.166L79.4512 180.452C81.1825 179.947 82.6422 178.775 83.5092 177.193C84.3762 175.612 84.5795 173.751 84.0743 172.019L72.6462 132.853C72.141 131.121 70.9688 129.662 69.3874 128.795C67.806 127.928 65.945 127.724 64.2137 128.23L51.1581 132.039L47.3487 118.983C44.3178 108.596 45.5375 97.4295 50.7395 87.9411C55.9415 78.4527 64.6997 71.4194 75.0874 68.3885C85.475 65.3575 96.6413 66.5772 106.13 71.7792C115.618 76.9812 122.651 85.7394 125.682 96.1271L129.492 109.183L116.436 112.992C114.705 113.497 113.245 114.669 112.378 116.251C111.511 117.832 111.308 119.693 111.813 121.425L123.241 160.591C123.746 162.323 124.918 163.782 126.5 164.649C128.081 165.516 129.942 165.72 131.674 165.214L151.257 159.5C156.451 157.985 160.83 154.468 163.431 149.724C166.032 144.98 166.642 139.397 165.126 134.203L161.317 121.147C160.127 117.11 157.717 113.54 154.418 110.927C151.119 108.313 147.092 106.784 142.89 106.548ZM61.4953 143.19L69.114 169.301L56.0584 173.11C54.3271 173.616 52.4661 173.412 50.8847 172.545C49.3033 171.678 48.1311 170.219 47.6259 168.487L43.8166 155.432C43.3114 153.7 43.5147 151.839 44.3817 150.258C45.2487 148.677 46.7084 147.504 48.4397 146.999L61.4953 143.19ZM152.071 138.012C152.576 139.744 152.373 141.605 151.506 143.186C150.639 144.767 149.179 145.94 147.448 146.445L134.392 150.254L126.773 124.143L139.829 120.334C141.56 119.828 143.421 120.032 145.003 120.899C146.584 121.766 147.756 123.225 148.261 124.957L152.071 138.012Z" fill="#642AD0"/>
<path d="M152.071 138.012C152.576 139.744 152.373 141.605 151.506 143.186C150.639 144.767 149.179 145.94 147.448 146.445L134.392 150.254L126.773 124.143L139.829 120.334C141.56 119.828 143.421 120.032 145.003 120.899C146.584 121.766 147.756 123.225 148.261 124.957L152.071 138.012Z" fill="#9B51FF"/>
<path d="M61.4953 143.19L69.114 169.301L56.0584 173.11C54.3271 173.616 52.4661 173.412 50.8847 172.545C49.3033 171.678 48.1311 170.219 47.6259 168.487L43.8166 155.432C43.3114 153.7 43.5147 151.839 44.3817 150.258C45.2487 148.677 46.7084 147.504 48.4397 146.999L61.4953 143.19Z" fill="#9B51FF"/>
<path fill-rule="evenodd" clip-rule="evenodd" d="M338.491 33.9905L337.86 39.2546C337.725 40.412 337.127 41.4668 336.208 42.1857C335.288 42.9045 334.123 43.2295 332.962 43.0845L332.953 43.0834C329.44 42.6444 325.898 43.6182 323.104 45.7881C320.304 47.9618 318.489 51.1549 318.05 54.668C316.353 68.2437 313.121 94.1064 311.424 107.686C310.985 111.2 311.959 114.741 314.138 117.537C316.313 120.328 319.506 122.143 323.019 122.582C338.307 124.493 369.501 128.391 384.785 130.301C388.298 130.74 391.844 129.766 394.639 127.597C397.434 125.422 399.254 122.23 399.693 118.717C401.39 105.137 404.622 79.2738 406.318 65.6982C406.757 62.1851 405.779 58.6428 403.605 55.8475C401.43 53.0567 398.232 51.2407 394.719 50.8017C392.292 50.4984 390.56 48.2829 390.859 45.855L391.509 40.5887C393.408 40.1627 395.217 39.3219 396.786 38.1015C399.577 35.9267 401.392 32.7335 401.831 29.2249L402.919 20.5128C403.358 16.9997 402.384 13.458 400.214 10.6633C398.04 7.87242 394.847 6.05698 391.333 5.61798L347.199 0.102911C343.691 -0.335537 340.149 0.638306 337.354 2.80815C334.559 4.98241 332.743 8.17558 332.304 11.6887C331.954 14.4912 331.566 17.5938 331.216 20.4008C330.777 23.9094 331.751 27.4512 333.925 30.2464C335.161 31.8352 336.724 33.1062 338.491 33.9905ZM393.612 59.628C394.786 59.7747 395.858 60.3793 396.584 61.3127C397.31 62.2461 397.637 63.4256 397.491 64.5951L390.866 117.614C390.72 118.783 390.112 119.846 389.179 120.567C388.246 121.293 387.062 121.621 385.888 121.474L324.122 113.756C322.948 113.609 321.881 113 321.155 112.067C320.428 111.138 320.105 109.959 320.251 108.789L326.876 55.771C327.023 54.6015 327.626 53.5384 328.56 52.8123C329.493 52.0863 330.676 51.7635 331.85 51.9102L331.859 51.9113C335.368 52.3498 338.906 51.371 341.688 49.1951C344.47 47.0147 346.272 43.8199 346.693 40.309L347.214 35.959L382.57 40.3772L382.03 44.7696C381.132 52.0667 386.316 58.7164 393.612 59.628ZM394.092 19.4098L393.004 28.1219C392.858 29.2914 392.254 30.3545 391.321 31.0806C390.392 31.8027 389.213 32.1305 388.039 31.9838L343.904 26.4687C342.735 26.3226 341.672 25.7146 340.946 24.7857C340.224 23.8528 339.896 22.6733 340.043 21.5038L341.131 12.7917C341.278 11.6177 341.886 10.5552 342.814 9.83298C343.748 9.10694 344.927 8.78361 346.096 8.92976L390.23 14.4448C391.404 14.5915 392.467 15.195 393.189 16.1279C393.916 17.0569 394.239 18.2358 394.092 19.4098Z" fill="#642AD0"/>
<path d="M394.092 19.4098L393.004 28.1219C392.858 29.2914 392.254 30.3545 391.321 31.0806C390.392 31.8027 389.213 32.1305 388.039 31.9838L343.904 26.4687C342.735 26.3226 341.672 25.7146 340.946 24.7857C340.224 23.8528 339.896 22.6733 340.043 21.5038L341.131 12.7917C341.278 11.6177 341.886 10.5552 342.814 9.83298C343.748 9.10694 344.927 8.78361 346.096 8.92976L390.23 14.4448C391.404 14.5915 392.467 15.195 393.189 16.1279C393.916 17.0569 394.239 18.2358 394.092 19.4098Z" fill="#9B51FF"/>
<path d="M393.612 59.628C394.786 59.7747 395.858 60.3793 396.584 61.3127C397.31 62.2461 397.637 63.4256 397.491 64.5951L390.866 117.614C390.72 118.783 390.112 119.846 389.179 120.567C388.246 121.293 387.062 121.621 385.888 121.474L324.122 113.756C322.948 113.609 321.881 113 321.155 112.067C320.428 111.138 320.105 109.959 320.251 108.789L326.876 55.771C327.023 54.6015 327.626 53.5384 328.56 52.8123C329.493 52.0863 330.676 51.7635 331.85 51.9102L331.859 51.9113C335.368 52.3498 338.906 51.371 341.688 49.1951C344.47 47.0147 346.272 43.8199 346.693 40.309L347.214 35.959L382.57 40.3772L382.03 44.7696C381.132 52.0667 386.316 58.7164 393.612 59.628Z" fill="#9B51FF"/>
<path fill-rule="evenodd" clip-rule="evenodd" d="M356.106 72.9298L347.226 71.8202C344.79 71.5158 342.566 73.2459 342.262 75.6821C341.957 78.1183 343.687 80.3426 346.123 80.647L355.003 81.7567L353.894 90.632C353.59 93.0683 355.32 95.2925 357.756 95.597C360.192 95.9014 362.417 94.1713 362.721 91.7351L363.83 82.8597L372.706 83.9688C375.142 84.2732 377.366 82.543 377.67 80.1068C377.975 77.6706 376.245 75.4463 373.809 75.1419L364.933 74.0328L366.043 65.153C366.347 62.7168 364.617 60.4925 362.181 60.1881C359.745 59.8837 357.52 61.6138 357.216 64.05L356.106 72.9298Z" fill="#642AD0"/>
</svg>
