<svg width="757" height="521" viewBox="0 0 757 521" fill="none" xmlns="http://www.w3.org/2000/svg">
<path d="M637.328 348.123C636.868 350.148 636.048 351.999 634.95 353.624C631.296 359.034 624.567 361.94 617.828 360.411C611.089 358.882 606.272 353.357 605.311 346.9C605.022 344.96 605.081 342.937 605.54 340.912L594.051 338.305C593.604 340.275 593.377 342.244 593.354 344.188C593.199 357.138 602.093 368.922 615.222 371.9C628.351 374.879 641.458 368.087 646.907 356.337C647.725 354.574 648.37 352.7 648.817 350.73L637.328 348.123Z" fill="#190085"/>
<path d="M699.335 398.517C699.335 398.517 670.326 355.379 664.825 349.878C659.325 344.378 640.216 342.553 638.825 342.238L585.205 330.258C583.814 329.943 582.355 330.143 581.099 330.821L527.855 359.614C525.17 361.067 524.039 364.329 525.25 367.131L538.847 398.607C540.136 401.586 543.593 402.962 546.578 401.684L559.499 396.143L544.082 461.823C543.905 462.58 543.879 463.364 544.006 464.131C544.133 464.898 544.41 465.632 544.822 466.292C545.234 466.951 545.772 467.522 546.405 467.972C547.039 468.423 547.755 468.743 548.513 468.915L633.534 488.204C634.292 488.375 635.077 488.395 635.843 488.262C636.609 488.13 637.341 487.847 637.997 487.43C638.653 487.013 639.22 486.47 639.665 485.833C640.111 485.196 640.426 484.478 640.592 483.718L655.026 417.815L664.289 428.389C666.431 430.83 670.141 431.084 672.592 428.95L698.441 406.423C700.743 404.418 701.13 400.987 699.335 398.517ZM669.283 416.211L656.202 401.28C655.483 400.461 654.551 399.856 653.51 399.535C652.468 399.213 651.358 399.185 650.302 399.456C649.246 399.727 648.286 400.286 647.529 401.071C646.773 401.855 646.249 402.835 646.016 403.9L630.354 475.402L556.909 458.739L573.634 387.475C573.883 386.413 573.833 385.304 573.489 384.27C573.145 383.235 572.52 382.317 571.685 381.616C570.85 380.917 569.837 380.462 568.759 380.303C567.681 380.144 566.579 380.287 565.578 380.716L547.334 388.541L538.205 367.411L584.757 342.237L593.354 344.188L605.311 346.9L634.95 353.624L646.907 356.337L655.504 358.288L686.635 401.089L669.283 416.211Z" fill="#190085"/>
<path d="M615.222 371.9C602.093 368.922 593.199 357.138 593.354 344.188L584.757 342.237L538.205 367.411L547.334 388.541L565.578 380.716C566.579 380.287 567.681 380.144 568.759 380.303C569.837 380.462 570.85 380.917 571.685 381.616C572.52 382.317 573.145 383.235 573.489 384.27C573.833 385.304 573.883 386.413 573.634 387.475L556.909 458.739L630.354 475.402L646.016 403.9C646.249 402.835 646.773 401.855 647.529 401.071C648.286 400.286 649.246 399.727 650.302 399.456C651.358 399.185 652.468 399.213 653.51 399.535C654.551 399.856 655.483 400.461 656.202 401.28L669.283 416.211L686.635 401.089L655.504 358.288L646.907 356.337C641.458 368.087 628.351 374.879 615.222 371.9Z" fill="#8439EA"/>
<path d="M617.828 360.411C624.567 361.94 631.296 359.034 634.95 353.624L605.311 346.9C606.272 353.357 611.089 358.882 617.828 360.411Z" fill="#3D1C3D"/>
<path d="M139.035 211.195C135.11 190.893 149.919 171.552 170.585 170.841C281.543 167.023 587.842 157.833 599.5 172.272C609.611 184.796 609.593 261.593 608.731 305.127C608.393 322.177 595.036 335.839 578.005 336.722C470.813 342.276 113.383 360.904 141.333 360.904C164.579 360.904 149.711 266.425 139.035 211.195Z" fill="#8439EA"/>
<path d="M285.325 198.106C293.389 197.659 300.91 198.632 307.885 201.025C310.544 201.912 313.083 202.961 315.499 204.171C321.945 207.4 322.47 215.859 317.676 221.258L315.854 223.31C311.581 228.121 303.99 227.744 298.149 225.068C294.466 223.355 290.501 222.616 286.254 222.851C282.341 223.067 278.758 224.057 275.504 225.819C272.251 227.58 269.437 229.94 267.062 232.899C264.736 235.854 262.985 239.258 261.809 243.109C260.632 246.959 260.164 251.082 260.405 255.477C260.649 259.919 261.567 263.989 263.158 267.687C264.749 271.384 266.864 274.597 269.503 277.326C272.187 280.004 275.241 282.04 278.668 283.432C282.095 284.823 285.765 285.41 289.678 285.194C293.924 284.958 297.785 283.786 301.259 281.677C304.733 279.569 309.944 274.367 310.748 273.784C310.773 273.761 328.315 257.154 336.969 265.325C345.623 273.497 330.634 291.624 330.614 291.648C325.825 296.8 320.485 301.458 313.715 304.563C306.993 307.667 299.577 309.443 291.465 309.892C283.305 310.344 275.666 309.378 268.547 306.992C261.474 304.557 255.223 300.974 249.794 296.243C244.41 291.462 240.1 285.759 236.864 279.134C233.677 272.506 231.863 265.179 231.422 257.153C230.981 249.128 231.982 241.645 234.425 234.705C236.915 227.763 240.575 221.643 245.405 216.344C250.28 210.995 256.102 206.743 262.868 203.589C269.68 200.385 277.166 198.557 285.325 198.106ZM503.144 242.795C503.917 242.752 504.855 242.938 505.955 243.354C507.096 243.723 508.095 244.252 508.952 244.941C509.809 245.629 510.264 246.448 510.316 247.398C510.34 247.829 510.273 248.201 510.118 248.513L502.222 271.939C501.516 274.012 500.852 276.041 500.228 278.024C499.603 280.006 498.754 281.807 497.679 283.425C496.646 285.041 495.167 286.356 493.239 287.372C491.314 288.431 488.718 289.051 485.451 289.232C484.162 289.303 483.052 289.126 482.123 288.701C481.238 288.274 480.743 287.111 480.639 285.212C480.577 284.09 480.695 283.11 480.994 282.271C481.336 281.429 481.959 280.983 482.861 280.933C483.463 280.899 484.254 280.791 485.235 280.607C486.219 280.466 487.214 280.107 488.217 279.532C489.265 278.998 490.101 278.129 490.725 276.926C491.394 275.763 491.673 274.167 491.562 272.139L479.041 250.234C478.802 249.814 478.671 249.388 478.647 248.956C478.6 248.093 478.943 247.274 479.676 246.497C480.409 245.721 481.28 245.088 482.288 244.599C483.339 244.108 484.295 243.839 485.154 243.791C485.756 243.758 486.322 243.856 486.852 244.086C487.379 244.273 487.768 244.664 488.016 245.256L496.265 262.398L500.653 244.556C500.835 243.94 501.156 243.511 501.617 243.269C502.119 242.981 502.628 242.824 503.144 242.795ZM357.628 250.917C361.153 250.722 364.023 251.169 366.238 252.259C368.454 253.348 370.11 254.836 371.205 256.724C372.298 258.568 372.904 260.591 373.025 262.792L373.871 278.201C373.918 279.064 373.486 279.824 372.574 280.481C371.705 281.135 370.56 281.502 369.142 281.58C367.895 281.649 366.825 281.405 365.933 280.849C365.04 280.292 364.57 279.582 364.522 278.719L364.444 277.294C363.357 278.696 362.069 279.98 360.581 281.145C359.09 282.266 357.206 282.891 354.928 283.017C352.693 283.14 350.721 282.556 349.012 281.266C347.3 279.932 346.363 277.797 346.202 274.862C346.062 272.316 346.598 270.295 347.81 268.799C349.021 267.304 350.729 266.213 352.933 265.528C355.18 264.841 357.787 264.415 360.753 264.251L363.074 264.123L363.038 263.476C362.998 262.742 362.807 262.016 362.466 261.299C362.125 260.582 361.597 260.005 360.884 259.569C360.168 259.089 359.186 258.883 357.939 258.952C356.177 259.05 354.876 259.295 354.035 259.688C353.194 260.081 352.548 260.485 352.097 260.9C351.643 261.271 351.114 261.473 350.513 261.506C349.438 261.565 348.57 261.073 347.909 260.028C347.291 258.98 346.951 257.872 346.887 256.707C346.83 255.671 347.361 254.733 348.479 253.892C349.639 253.048 351.046 252.363 352.698 251.839C354.394 251.312 356.038 251.005 357.628 250.917ZM382.019 236.514C383.265 236.445 384.42 236.662 385.482 237.166C386.588 237.668 387.165 238.372 387.215 239.278L387.784 249.637L395.07 249.234C395.887 249.188 396.51 249.544 396.939 250.299C397.409 251.009 397.668 251.795 397.716 252.658C397.766 253.565 397.596 254.397 397.206 255.154C396.859 255.91 396.278 256.309 395.461 256.355L388.175 256.759L388.876 269.513C388.928 270.462 389.158 271.12 389.566 271.487C389.972 271.811 390.67 271.947 391.658 271.892L394.431 271.737C395.892 271.657 396.991 272.051 397.729 272.919C398.464 273.744 398.86 274.674 398.917 275.71C398.976 276.789 398.685 277.78 398.045 278.681C397.405 279.582 396.354 280.074 394.893 280.154L392.12 280.308C388.037 280.534 384.851 279.844 382.564 278.239C380.318 276.589 379.09 273.865 378.882 270.067L377.221 239.831C377.171 238.925 377.668 238.162 378.712 237.541C379.756 236.921 380.858 236.578 382.019 236.514ZM414.738 247.755C417.231 247.617 419.538 248.008 421.658 248.93C423.821 249.849 425.599 251.201 426.99 252.986C428.379 254.727 429.141 256.828 429.276 259.288C429.383 261.23 429.137 262.651 428.54 263.55C427.983 264.403 427.217 264.965 426.24 265.236C425.304 265.461 424.341 265.601 423.353 265.655L410.908 266.345L410.93 266.733C411.017 268.329 411.69 269.592 412.948 270.518C414.204 271.401 415.821 271.787 417.798 271.678C419.13 271.604 420.259 271.346 421.184 270.905C422.105 270.422 422.922 269.965 423.631 269.536C424.34 269.108 425.039 268.874 425.727 268.836C426.5 268.793 427.18 269.015 427.768 269.502C428.355 269.989 428.797 270.571 429.093 271.247C429.432 271.921 429.615 272.517 429.644 273.035C429.688 273.855 429.241 274.746 428.303 275.707C427.364 276.668 426.009 277.522 424.239 278.27C422.51 278.971 420.421 279.39 417.971 279.526C414.79 279.702 411.943 279.297 409.432 278.311C406.918 277.281 404.895 275.769 403.362 273.776C401.873 271.78 401.054 269.422 400.904 266.703L400.645 261.978C400.512 259.561 401.056 257.301 402.277 255.198C403.498 253.096 405.194 251.378 407.362 250.046C409.529 248.671 411.987 247.907 414.738 247.755ZM451.947 245.695C452.893 245.642 453.734 246.029 454.469 246.854C455.247 247.676 455.668 248.671 455.732 249.836C455.799 251.044 455.49 252.1 454.807 253.004C454.166 253.905 453.373 254.382 452.428 254.435L450.558 254.538C449.397 254.603 448.302 255.075 447.272 255.954C446.241 256.791 445.42 257.94 444.811 259.403C444.201 260.865 443.951 262.589 444.06 264.574L444.593 274.285C444.635 275.062 444.18 275.802 443.228 276.504C442.274 277.206 441.088 277.596 439.67 277.675C438.252 277.754 437.051 277.496 436.07 276.901C435.132 276.303 434.641 275.616 434.599 274.839L433.244 250.172C433.194 249.266 433.606 248.507 434.478 247.896C435.392 247.282 436.559 246.936 437.978 246.858C439.224 246.789 440.292 247.011 441.183 247.525C442.073 248.038 442.544 248.748 442.594 249.654L442.725 252.05C443.102 251.077 443.655 250.137 444.381 249.231C445.148 248.279 446.01 247.495 446.968 246.879C447.966 246.218 449.004 245.858 450.078 245.798L451.947 245.695ZM473.54 227.225C474.786 227.156 475.735 227.558 476.387 228.431C477.079 229.258 477.454 230.19 477.511 231.226C477.57 232.305 477.3 233.295 476.703 234.194C476.149 235.09 475.248 235.573 474.002 235.642L471.552 235.778C470.864 235.816 470.248 235.979 469.703 236.269C469.202 236.556 468.815 236.968 468.543 237.502C468.268 237.994 468.153 238.65 468.198 239.47L468.511 245.167L475.797 244.764C476.613 244.719 477.237 245.074 477.666 245.829C478.136 246.539 478.395 247.326 478.442 248.189C478.492 249.095 478.322 249.927 477.933 250.685C477.586 251.44 477.004 251.84 476.188 251.885L468.901 252.288L470.036 272.942C470.086 273.848 469.61 274.61 468.609 275.229C467.652 275.844 466.485 276.191 465.109 276.267C463.734 276.343 462.558 276.126 461.581 275.617C460.605 275.109 460.092 274.401 460.042 273.494L458.265 241.123C458.127 238.62 458.52 236.369 459.445 234.369C460.368 232.327 461.659 230.697 463.316 229.48C464.974 228.262 466.834 227.596 468.897 227.482L473.54 227.225ZM363.083 268.992C361.879 269.059 360.723 269.21 359.615 269.445C358.548 269.633 357.685 270.006 357.025 270.562C356.407 271.072 356.126 271.846 356.183 272.882C356.235 273.831 356.509 274.509 357.006 274.914C357.502 275.319 358.116 275.502 358.847 275.461C359.534 275.423 360.229 275.125 360.932 274.567C361.631 273.965 362.215 273.197 362.681 272.262C363.19 271.325 363.414 270.316 363.354 269.237L363.341 268.979L363.083 268.992ZM414.943 255.017C414.17 255.06 413.425 255.252 412.711 255.595C412.038 255.892 411.481 256.355 411.041 256.986C410.642 257.57 410.466 258.295 410.514 259.158L410.6 260.712L418.595 260.27C419.067 260.243 419.405 260.116 419.608 259.889C419.811 259.661 419.896 259.245 419.863 258.641C419.816 257.778 419.54 257.078 419.036 256.543C418.573 255.963 417.969 255.563 417.225 255.345C416.52 255.081 415.76 254.972 414.943 255.017Z" fill="#DBDBDB"/>
<path d="M106.719 391.511L120.825 387.518C136.302 383.137 152.885 385.084 166.926 392.93C180.967 400.775 191.317 413.878 195.698 429.354C196.027 430.518 195.881 431.765 195.291 432.821C194.701 433.876 193.716 434.654 192.552 434.984L70.4688 469.541C69.3052 469.871 68.0583 469.724 67.0026 469.134C65.9469 468.544 65.1687 467.559 64.8393 466.396C62.6691 458.729 62.031 450.709 62.9614 442.796C63.8919 434.882 66.3727 427.229 70.262 420.275C74.1514 413.321 79.373 407.201 85.6286 402.265C91.8841 397.33 99.051 393.675 106.719 391.511Z" fill="#8439EA"/>
<path d="M190.603 435.465L72.4465 468.91L76.8741 484.552L195.031 451.106L190.603 435.465Z" fill="#190085"/>
<path d="M74.7681 485.148L197.137 450.51C197.69 450.353 198.268 450.307 198.839 450.374C199.41 450.441 199.962 450.62 200.464 450.901C200.966 451.181 201.408 451.557 201.764 452.009C202.12 452.46 202.384 452.977 202.541 453.53C204.75 461.334 203.77 469.696 199.816 476.778C195.863 483.86 189.259 489.083 181.456 491.297L109.522 511.659C101.714 513.87 93.3479 512.887 86.2639 508.929C79.1799 504.971 73.9585 498.361 71.7483 490.552C71.5917 489.999 71.5456 489.421 71.6127 488.85C71.6797 488.279 71.8585 487.727 72.1389 487.225C72.4193 486.723 72.7958 486.281 73.2469 485.925C73.6981 485.569 74.2149 485.305 74.7681 485.148Z" fill="#8439EA"/>
<path d="M150.184 479.013L126.651 470.462L183.689 454.317L168.151 473.927C166.069 476.554 163.214 478.459 159.989 479.372C156.764 480.285 153.333 480.159 150.184 479.013Z" fill="#190085"/>
<path d="M724.272 123.289C727.727 148.922 721.425 174.918 706.617 196.124C704.662 198.935 701.747 200.933 698.42 201.74C695.093 202.548 691.586 202.109 688.561 200.506L592.201 149.158C590.795 148.409 589.589 147.336 588.681 146.028C587.772 144.719 587.189 143.214 586.978 141.635C586.767 140.057 586.934 138.451 587.467 136.95C588 135.449 588.882 134.097 590.041 133.005L669.531 58.1642C672.029 55.8238 675.298 54.4794 678.72 54.385C682.142 54.2907 685.48 55.4528 688.104 57.652C707.962 74.2231 720.871 97.6493 724.272 123.289ZM595.623 140.488C595.648 140.695 595.723 140.892 595.841 141.062C595.96 141.233 596.118 141.372 596.302 141.468L622.704 155.537L630.45 159.665L645.906 167.901L653.654 172.03L677.92 184.96L685.655 189.082L692.662 192.816C693.806 193.421 695.132 193.585 696.389 193.277C697.645 192.968 698.744 192.209 699.478 191.143C713.014 171.714 718.781 147.919 715.644 124.448C712.506 100.978 700.69 79.5337 682.525 64.3429C681.538 63.5068 680.278 63.0628 678.984 63.0951C677.691 63.1274 676.454 63.6339 675.51 64.5182L669.731 69.9607L663.352 75.9677L596.023 139.376C595.871 139.516 595.756 139.69 595.687 139.883C595.617 140.077 595.595 140.285 595.623 140.488Z" fill="#190085"/>
<path d="M700.129 126.517C703.035 148.251 697.902 170.323 685.655 189.082C684.997 190.089 684.319 191.087 683.621 192.075C682.953 193.02 681.936 193.661 680.796 193.856C679.655 194.052 678.483 193.786 677.538 193.118C676.593 192.45 675.952 191.434 675.757 190.293C675.561 189.152 675.826 187.98 676.495 187.036C676.98 186.349 677.456 185.657 677.92 184.96C689.336 167.815 694.146 147.575 691.485 127.672C688.823 107.762 678.856 89.5052 663.352 75.9677C662.661 75.3643 661.959 74.7702 661.246 74.1857C660.351 73.4528 659.784 72.3945 659.669 71.2434C659.555 70.0924 659.902 68.943 660.635 68.0481C661.368 67.1532 662.426 66.5861 663.577 66.4716C664.728 66.357 665.878 66.7044 666.773 67.4373C667.778 68.2611 668.765 69.1025 669.731 69.9607C686.474 84.8334 697.222 104.775 700.129 126.517ZM656.26 160.244C656.633 163.052 656.324 165.909 655.358 168.571C654.917 169.787 654.345 170.947 653.654 172.03C652.833 173.318 651.845 174.499 650.711 175.539C649.858 176.322 648.729 176.733 647.573 176.683C646.417 176.633 645.328 176.126 644.546 175.273C643.763 174.42 643.352 173.291 643.402 172.135C643.452 170.978 643.959 169.889 644.812 169.107C645.215 168.738 645.581 168.334 645.906 167.901C646.42 167.219 646.833 166.463 647.132 165.657C647.621 164.34 647.79 162.925 647.624 161.529C647.458 160.133 646.963 158.797 646.179 157.631C645.395 156.464 644.346 155.501 643.116 154.82C641.887 154.139 640.513 153.76 639.108 153.715C637.704 153.67 636.308 153.959 635.037 154.559C633.767 155.159 632.657 156.053 631.799 157.167C631.216 157.924 630.761 158.768 630.45 159.665C630.303 160.087 630.188 160.521 630.106 160.963C630.012 161.535 629.804 162.082 629.496 162.573C629.188 163.064 628.785 163.488 628.311 163.821C627.837 164.154 627.301 164.39 626.735 164.513C626.169 164.637 625.584 164.647 625.015 164.542C624.445 164.437 623.902 164.22 623.417 163.903C622.932 163.585 622.515 163.175 622.191 162.695C621.866 162.215 621.641 161.675 621.527 161.106C621.414 160.538 621.415 159.953 621.53 159.385C621.775 158.053 622.17 156.762 622.704 155.537C623.819 152.974 625.538 150.695 627.737 148.908C630.988 146.266 635.075 144.872 639.262 144.975C643.45 145.079 647.463 146.674 650.579 149.473C653.695 152.272 655.709 156.092 656.26 160.244Z" fill="#190085"/>
<path d="M685.655 189.082L692.662 192.816C693.806 193.421 695.132 193.585 696.389 193.277C697.645 192.968 698.744 192.209 699.478 191.143C713.014 171.714 718.781 147.919 715.644 124.448C712.506 100.978 700.69 79.5337 682.525 64.3429C681.538 63.5068 680.278 63.0628 678.984 63.0951C677.691 63.1274 676.454 63.6339 675.51 64.5182L669.731 69.9607C686.474 84.8334 697.222 104.775 700.129 126.517C703.035 148.251 697.902 170.323 685.655 189.082Z" fill="#190085"/>
<path d="M595.623 140.488C595.648 140.695 595.723 140.892 595.841 141.062C595.96 141.233 596.118 141.372 596.302 141.468L622.704 155.537C623.819 152.974 625.538 150.695 627.737 148.908C630.988 146.266 635.075 144.872 639.262 144.975C643.45 145.079 647.463 146.674 650.579 149.473C653.695 152.272 655.709 156.092 656.26 160.244C656.633 163.052 656.324 165.909 655.358 168.571C654.917 169.787 654.345 170.947 653.654 172.03L677.92 184.96C689.336 167.815 694.146 147.575 691.485 127.672C688.823 107.762 678.856 89.5052 663.352 75.9677L596.023 139.376C595.871 139.516 595.756 139.69 595.687 139.883C595.617 140.077 595.595 140.285 595.623 140.488Z" fill="#8439EA"/>
<path d="M634.08 131.809C634.19 132.634 634.062 133.474 633.71 134.228C633.358 134.983 632.798 135.621 632.095 136.067C631.392 136.513 630.577 136.749 629.744 136.746C628.912 136.743 628.097 136.503 627.397 136.052L623.816 133.744C622.843 133.118 622.159 132.132 621.913 131.001C621.668 129.871 621.882 128.689 622.508 127.716C623.134 126.743 624.121 126.059 625.252 125.814C626.382 125.569 627.564 125.783 628.537 126.409L632.118 128.716C632.65 129.058 633.101 129.512 633.44 130.047C633.779 130.581 633.997 131.182 634.08 131.809ZM677.392 150.491C677.476 151.117 677.423 151.754 677.237 152.358C677.05 152.962 676.734 153.518 676.311 153.988L673.462 157.155C673.079 157.58 672.615 157.926 672.098 158.173C671.582 158.42 671.021 158.562 670.449 158.592C669.878 158.622 669.305 158.539 668.766 158.348C668.226 158.157 667.729 157.861 667.303 157.478C666.878 157.095 666.532 156.632 666.285 156.115C666.039 155.598 665.896 155.038 665.866 154.466C665.836 153.894 665.919 153.322 666.11 152.782C666.301 152.242 666.597 151.745 666.98 151.32L669.83 148.152C670.387 147.534 671.109 147.087 671.912 146.866C672.714 146.645 673.563 146.658 674.359 146.904C675.154 147.15 675.862 147.618 676.4 148.254C676.937 148.889 677.282 149.666 677.392 150.491Z" fill="#190085"/>
<path d="M678.872 118.582C679.334 122.03 678.763 125.537 677.231 128.659C675.699 131.782 673.276 134.38 670.268 136.126C667.259 137.871 663.801 138.685 660.33 138.465C656.859 138.245 653.531 137 650.767 134.889C648.003 132.777 645.928 129.894 644.803 126.602C643.678 123.311 643.555 119.761 644.448 116.399C645.341 113.038 647.211 110.017 649.822 107.718C652.432 105.42 655.665 103.947 659.113 103.486C663.734 102.873 668.41 104.118 672.114 106.948C675.819 109.778 678.249 113.962 678.872 118.582ZM652.651 122.088C652.883 123.826 653.625 125.456 654.783 126.772C655.941 128.088 657.464 129.031 659.158 129.482C660.852 129.933 662.642 129.871 664.301 129.304C665.961 128.738 667.414 127.692 668.479 126.299C669.544 124.906 670.172 123.229 670.283 121.479C670.394 119.73 669.984 117.986 669.105 116.47C668.225 114.953 666.916 113.731 665.342 112.959C663.768 112.187 662 111.899 660.263 112.131C657.935 112.446 655.828 113.671 654.402 115.537C652.976 117.404 652.349 119.759 652.657 122.087L652.651 122.088Z" fill="#190085"/>
<path d="M652.651 122.088C652.883 123.826 653.625 125.456 654.783 126.772C655.941 128.088 657.464 129.031 659.158 129.482C660.852 129.933 662.642 129.871 664.301 129.304C665.961 128.738 667.414 127.692 668.479 126.299C669.544 124.906 670.172 123.229 670.283 121.479C670.394 119.73 669.984 117.986 669.105 116.47C668.225 114.953 666.916 113.731 665.342 112.959C663.768 112.187 662 111.899 660.263 112.131C657.935 112.446 655.828 113.671 654.402 115.537C652.976 117.404 652.349 119.759 652.657 122.087L652.651 122.088Z" fill="#3D1C3D"/>
<path d="M647.132 165.657C647.621 164.34 647.79 162.925 647.624 161.529C647.458 160.133 646.963 158.797 646.179 157.631C645.395 156.464 644.346 155.501 643.116 154.82C641.887 154.139 640.513 153.76 639.108 153.715C637.704 153.67 636.308 153.959 635.037 154.559C633.767 155.159 632.657 156.053 631.799 157.167C631.216 157.924 630.761 158.768 630.45 159.665L645.906 167.901C646.42 167.219 646.833 166.463 647.132 165.657Z" fill="#3D1C3D"/>
<path d="M142.89 106.548L138.738 92.3177C134.697 78.4675 125.319 66.7899 112.668 59.8539C100.017 52.9179 85.1282 51.2916 71.278 55.3329C57.4277 59.3741 45.7501 68.7518 38.8141 81.403C31.8781 94.0542 30.2519 108.943 34.2931 122.793L38.4453 137.023C35.029 139.482 32.4566 142.936 31.0809 146.914C29.7052 150.892 29.5934 155.197 30.761 159.241L34.5703 172.297C36.0858 177.491 39.6025 181.87 44.3466 184.471C49.0908 187.072 54.674 187.682 59.8678 186.166L79.4512 180.452C81.1825 179.947 82.6422 178.775 83.5092 177.193C84.3762 175.612 84.5795 173.751 84.0743 172.02L72.6462 132.853C72.141 131.121 70.9688 129.662 69.3874 128.795C67.806 127.928 65.945 127.724 64.2137 128.23L51.1581 132.039L47.3487 118.983C44.3178 108.596 45.5375 97.4295 50.7395 87.9411C55.9415 78.4527 64.6997 71.4194 75.0874 68.3885C85.475 65.3575 96.6413 66.5772 106.13 71.7792C115.618 76.9812 122.651 85.7394 125.682 96.1271L129.492 109.183L116.436 112.992C114.705 113.497 113.245 114.669 112.378 116.251C111.511 117.832 111.308 119.693 111.813 121.425L123.241 160.591C123.746 162.323 124.918 163.782 126.5 164.649C128.081 165.516 129.942 165.72 131.674 165.214L151.257 159.5C156.451 157.985 160.83 154.468 163.431 149.724C166.032 144.98 166.642 139.397 165.126 134.203L161.317 121.147C160.127 117.11 157.717 113.54 154.418 110.927C151.119 108.313 147.092 106.784 142.89 106.548ZM61.4953 143.19L69.114 169.301L56.0584 173.11C54.3271 173.616 52.4661 173.412 50.8847 172.545C49.3033 171.678 48.1311 170.219 47.6259 168.487L43.8166 155.432C43.3114 153.7 43.5147 151.839 44.3817 150.258C45.2487 148.677 46.7084 147.504 48.4397 146.999L61.4953 143.19ZM152.071 138.012C152.576 139.744 152.373 141.605 151.506 143.186C150.639 144.767 149.179 145.94 147.448 146.445L134.392 150.254L126.773 124.143L139.829 120.334C141.56 119.828 143.421 120.032 145.003 120.899C146.584 121.766 147.756 123.225 148.261 124.957L152.071 138.012Z" fill="#190085"/>
<path d="M152.071 138.012C152.576 139.744 152.373 141.605 151.506 143.186C150.639 144.767 149.179 145.94 147.448 146.445L134.392 150.254L126.773 124.143L139.829 120.334C141.56 119.828 143.421 120.032 145.003 120.899C146.584 121.766 147.756 123.225 148.261 124.957L152.071 138.012Z" fill="#8439EA"/>
<path d="M61.4953 143.19L69.114 169.301L56.0584 173.11C54.3271 173.616 52.4661 173.412 50.8847 172.545C49.3033 171.678 48.1311 170.219 47.6259 168.487L43.8166 155.432C43.3114 153.7 43.5147 151.839 44.3817 150.258C45.2487 148.677 46.7084 147.504 48.4397 146.999L61.4953 143.19Z" fill="#8439EA"/>
<path fill-rule="evenodd" clip-rule="evenodd" d="M338.491 33.9905L337.86 39.2546C337.725 40.412 337.127 41.4668 336.208 42.1857C335.288 42.9045 334.123 43.2295 332.962 43.0845L332.953 43.0834C329.44 42.6444 325.898 43.6182 323.104 45.7881C320.304 47.9618 318.489 51.1549 318.05 54.668C316.353 68.2437 313.121 94.1064 311.424 107.686C310.985 111.2 311.959 114.741 314.138 117.537C316.313 120.328 319.506 122.143 323.019 122.582C338.307 124.493 369.501 128.391 384.785 130.301C388.298 130.74 391.844 129.766 394.639 127.597C397.434 125.422 399.254 122.23 399.693 118.717C401.39 105.137 404.622 79.2738 406.318 65.6982C406.757 62.1851 405.779 58.6428 403.605 55.8475C401.43 53.0567 398.232 51.2407 394.719 50.8017C392.292 50.4984 390.56 48.2829 390.859 45.855L391.509 40.5887C393.408 40.1627 395.217 39.3219 396.786 38.1015C399.577 35.9267 401.392 32.7335 401.831 29.2249L402.919 20.5128C403.358 16.9997 402.384 13.458 400.214 10.6633C398.04 7.87242 394.847 6.05698 391.333 5.61798L347.199 0.102911C343.691 -0.335537 340.149 0.638306 337.354 2.80815C334.559 4.98241 332.743 8.17558 332.304 11.6887C331.954 14.4912 331.566 17.5938 331.216 20.4008C330.777 23.9094 331.751 27.4512 333.925 30.2464C335.161 31.8352 336.724 33.1062 338.491 33.9905ZM393.612 59.628C394.786 59.7747 395.858 60.3793 396.584 61.3127C397.31 62.2461 397.637 63.4256 397.491 64.5951L390.866 117.614C390.72 118.783 390.112 119.846 389.179 120.567C388.246 121.293 387.062 121.621 385.888 121.474L324.122 113.756C322.948 113.609 321.881 113 321.155 112.067C320.428 111.138 320.105 109.959 320.251 108.789L326.876 55.771C327.023 54.6015 327.626 53.5384 328.56 52.8123C329.493 52.0863 330.676 51.7635 331.85 51.9102L331.859 51.9113C335.368 52.3498 338.906 51.371 341.688 49.1951C344.47 47.0147 346.272 43.8199 346.693 40.309L347.214 35.959L382.57 40.3772L382.03 44.7696C381.132 52.0667 386.316 58.7164 393.612 59.628ZM394.092 19.4098L393.004 28.1219C392.858 29.2914 392.254 30.3545 391.321 31.0806C390.392 31.8027 389.213 32.1305 388.039 31.9838L343.904 26.4687C342.735 26.3226 341.672 25.7146 340.946 24.7857C340.224 23.8528 339.896 22.6733 340.043 21.5038L341.131 12.7917C341.278 11.6177 341.886 10.5552 342.814 9.83298C343.748 9.10694 344.927 8.78361 346.096 8.92976L390.23 14.4448C391.404 14.5915 392.467 15.195 393.189 16.1279C393.916 17.0569 394.239 18.2358 394.092 19.4098Z" fill="#190085"/>
<path d="M394.092 19.4098L393.004 28.1219C392.858 29.2914 392.254 30.3545 391.321 31.0806C390.392 31.8027 389.213 32.1305 388.039 31.9838L343.904 26.4687C342.735 26.3226 341.672 25.7146 340.946 24.7857C340.224 23.8528 339.896 22.6733 340.043 21.5038L341.131 12.7917C341.278 11.6177 341.886 10.5552 342.814 9.83298C343.748 9.10694 344.927 8.78361 346.096 8.92976L390.23 14.4448C391.404 14.5915 392.467 15.195 393.189 16.1279C393.916 17.0569 394.239 18.2358 394.092 19.4098Z" fill="#8439EA"/>
<path d="M393.612 59.628C394.786 59.7747 395.858 60.3793 396.584 61.3127C397.31 62.2461 397.637 63.4256 397.491 64.5951L390.866 117.614C390.72 118.783 390.112 119.846 389.179 120.567C388.246 121.293 387.062 121.621 385.888 121.474L324.122 113.756C322.948 113.609 321.881 113 321.155 112.067C320.428 111.138 320.105 109.959 320.251 108.789L326.876 55.771C327.023 54.6015 327.626 53.5384 328.56 52.8123C329.493 52.0863 330.676 51.7635 331.85 51.9102L331.859 51.9113C335.368 52.3498 338.906 51.371 341.688 49.1951C344.47 47.0147 346.272 43.8199 346.693 40.309L347.214 35.959L382.57 40.3772L382.03 44.7696C381.132 52.0667 386.316 58.7164 393.612 59.628Z" fill="#8439EA"/>
<path fill-rule="evenodd" clip-rule="evenodd" d="M356.106 72.9298L347.226 71.8202C344.79 71.5158 342.566 73.2459 342.262 75.6821C341.957 78.1183 343.687 80.3426 346.123 80.647L355.003 81.7567L353.894 90.632C353.59 93.0683 355.32 95.2925 357.756 95.597C360.192 95.9014 362.417 94.1713 362.721 91.7351L363.83 82.8597L372.706 83.9688C375.142 84.2732 377.366 82.543 377.67 80.1068C377.975 77.6706 376.245 75.4463 373.809 75.1419L364.933 74.0328L366.043 65.153C366.347 62.7168 364.617 60.4925 362.181 60.1881C359.745 59.8837 357.52 61.6138 357.216 64.05L356.106 72.9298Z" fill="#190085"/>
</svg>
