<svg width="279" height="112" viewBox="0 0 279 112" fill="none" xmlns="http://www.w3.org/2000/svg">
<path d="M54.0044 0.105309C62.0684 -0.341209 69.5887 0.632252 76.5639 3.02523C79.2235 3.91262 81.762 4.96143 84.1782 6.17172C90.6242 9.40084 91.1489 17.8585 86.3549 23.2577L84.5327 25.3094C80.2601 30.1208 72.6691 29.7436 66.8286 27.0672C63.145 25.3545 59.1797 24.6163 54.9331 24.8514C51.0203 25.0681 47.4367 26.0568 44.1831 27.8182C40.9296 29.5796 38.1157 31.9398 35.7417 34.8983C33.4152 37.8542 31.6642 41.2576 30.4878 45.1082C29.3113 48.9588 28.8431 53.0815 29.0844 57.4764C29.3284 61.9192 30.2464 65.9899 31.8374 69.6873C33.4283 73.3846 35.5435 76.5972 38.1821 79.326C40.8657 82.0041 43.9205 84.04 47.3471 85.4315C50.7739 86.823 54.4441 87.4099 58.3569 87.1932C62.6035 86.958 66.4642 85.786 69.938 83.6766C73.4113 81.5684 78.6224 76.3691 79.4272 75.785C79.4272 75.785 96.988 59.1477 105.648 67.325C114.3 75.4949 99.3209 93.6141 99.2934 93.6473C94.5039 98.8 89.1637 103.457 82.394 106.562C75.6725 109.667 68.2557 111.443 60.144 111.892C51.9845 112.344 44.3448 111.377 37.226 108.992C30.1527 106.557 23.9018 102.974 18.4731 98.243C13.0894 93.4615 8.77897 87.7591 5.54342 81.1336C2.35568 74.5059 0.541797 67.1788 0.10104 59.1532C-0.339684 51.1276 0.661395 43.6453 3.10397 36.7059C5.59433 29.7639 9.25451 23.6432 14.0844 18.3446C18.9596 12.9955 24.7808 8.74359 31.5473 5.58968C38.359 2.38546 45.845 0.557144 54.0044 0.105309Z" fill="#8A50F6"/>
<path d="M271.823 44.7948C272.596 44.752 273.534 44.9381 274.634 45.3534C275.775 45.723 276.774 46.2519 277.631 46.9403C278.488 47.6288 278.943 48.4487 278.996 49.3983C279.019 49.8297 278.953 50.201 278.797 50.5125L270.901 73.9383C270.196 76.0121 269.531 78.0406 268.907 80.0233C268.283 82.006 267.433 83.8066 266.358 85.4246C265.326 87.0403 263.845 88.356 261.917 89.3719C259.992 90.4308 257.397 91.0514 254.13 91.2323C252.841 91.3037 251.731 91.1268 250.802 90.702C249.917 90.2748 249.422 89.1115 249.318 87.2127C249.256 86.0905 249.374 85.1095 249.673 84.2703C250.015 83.4289 250.638 82.9834 251.54 82.9334C252.142 82.9001 252.933 82.7914 253.915 82.6073C254.898 82.4662 255.893 82.1081 256.896 81.533C257.944 80.9988 258.78 80.129 259.404 78.9256C260.073 77.763 260.352 76.1678 260.241 74.1395L247.72 52.2332C247.482 51.8137 247.35 51.3883 247.327 50.9569C247.279 50.0937 247.622 49.2734 248.355 48.4969C249.088 47.7203 249.959 47.0872 250.967 46.5985C252.018 46.1074 252.974 45.8385 253.833 45.7909C254.435 45.7576 255.001 45.8564 255.531 46.0868C256.058 46.274 256.447 46.6634 256.695 47.2557L264.944 64.3973L269.332 46.5565C269.514 45.9403 269.835 45.5104 270.296 45.2684C270.798 44.9809 271.307 44.8233 271.823 44.7948Z" fill="#8A50F6"/>
<path fill-rule="evenodd" clip-rule="evenodd" d="M126.307 52.9168C129.832 52.7217 132.702 53.1691 134.917 54.2586C137.133 55.3481 138.788 56.8369 139.883 58.7244C140.976 60.5688 141.584 62.5916 141.705 64.7928L142.55 80.201C142.598 81.0642 142.166 81.8247 141.253 82.4813C140.384 83.1355 139.239 83.5014 137.821 83.5799C136.574 83.6489 135.505 83.4051 134.612 82.8485C133.719 82.2918 133.249 81.5817 133.202 80.7186L133.124 79.2948C132.036 80.697 130.748 81.9806 129.26 83.1453C127.77 84.2668 125.885 84.8903 123.607 85.0164C121.372 85.1401 119.4 84.5569 117.691 83.2664C115.979 81.9326 115.043 79.798 114.881 76.8631C114.741 74.3166 115.277 72.2954 116.489 70.7996C117.7 69.3039 119.407 68.213 121.612 67.5282C123.859 66.8409 126.466 66.416 129.432 66.2518L131.753 66.1229L131.717 65.4754C131.677 64.7418 131.486 64.0167 131.145 63.2996C130.804 62.5826 130.277 62.0049 129.563 61.5682C128.847 61.0884 127.865 60.883 126.619 60.952C124.856 61.0496 123.555 61.2954 122.714 61.6883C121.874 62.0812 121.227 62.4846 120.776 62.8993C120.322 63.2707 119.794 63.4734 119.192 63.5067C118.117 63.566 117.249 63.0728 116.588 62.0272C115.97 60.9791 115.63 59.8722 115.566 58.7069C115.509 57.671 116.04 56.7326 117.158 55.8914C118.318 55.048 119.725 54.3641 121.377 53.8397C123.073 53.3129 124.717 53.0049 126.307 52.9168ZM131.762 70.993C130.559 71.0596 129.403 71.2096 128.294 71.4442C127.227 71.6332 126.364 72.0063 125.705 72.5623C125.086 73.0728 124.805 73.8458 124.862 74.8817C124.914 75.8309 125.188 76.5084 125.684 76.9139C126.181 77.3193 126.795 77.5022 127.526 77.4618C128.213 77.4236 128.909 77.1255 129.611 76.5672C130.311 75.9657 130.894 75.1974 131.36 74.2625C131.869 73.3252 132.093 72.3162 132.034 71.2371L132.02 70.9784L131.762 70.993Z" fill="#8A50F6"/>
<path d="M150.698 38.5135C151.944 38.4445 153.099 38.6619 154.162 39.1659C155.267 39.6675 155.844 40.3718 155.894 41.2782L156.463 51.6366L163.749 51.2332C164.566 51.1882 165.189 51.5433 165.619 52.2987C166.089 53.0086 166.348 53.7958 166.395 54.659C166.445 55.5651 166.275 56.3968 165.885 57.1541C165.539 57.9093 164.957 58.3101 164.14 58.3553L156.854 58.7586L157.555 71.5125C157.607 72.4621 157.837 73.1211 158.246 73.4881C158.651 73.8117 159.349 73.9462 160.337 73.8914L163.11 73.7381C164.571 73.6573 165.67 74.0507 166.408 74.9188C167.143 75.7439 167.539 76.6749 167.596 77.7108C167.655 78.7897 167.364 79.7802 166.724 80.6815C166.084 81.5825 165.033 82.0732 163.572 82.1541L160.799 82.3075C156.716 82.5336 153.531 81.8441 151.244 80.2391C148.997 78.5885 147.77 75.8644 147.561 72.0662L145.9 41.8319C145.85 40.9255 146.347 40.1614 147.391 39.5409C148.435 38.9203 149.537 38.5778 150.698 38.5135Z" fill="#8A50F6"/>
<path fill-rule="evenodd" clip-rule="evenodd" d="M183.417 49.7547C185.911 49.6167 188.217 50.0089 190.337 50.9305C192.5 51.8498 194.278 53.2017 195.669 54.9862C197.058 56.7274 197.82 58.828 197.956 61.2879C198.062 63.2301 197.816 64.6507 197.219 65.5496C196.662 66.403 195.896 66.9656 194.919 67.2362C193.983 67.4612 193.02 67.6004 192.032 67.6551L179.587 68.3446L179.609 68.7332C179.697 70.33 180.37 71.5914 181.627 72.5174C182.883 73.4003 184.5 73.787 186.477 73.6776C187.81 73.6038 188.938 73.3469 189.863 72.9061C190.785 72.4221 191.601 71.9659 192.31 71.5369C193.019 71.1081 193.718 70.8739 194.406 70.8358C195.179 70.793 195.86 71.015 196.447 71.5018C197.034 71.9888 197.476 72.5707 197.772 73.2469C198.111 73.9208 198.294 74.5171 198.323 75.035C198.368 75.855 197.921 76.7458 196.982 77.7069C196.043 78.668 194.688 79.522 192.918 80.2694C191.189 80.9712 189.1 81.3905 186.65 81.5262C183.469 81.7023 180.623 81.2969 178.111 80.3104C175.597 79.2807 173.574 77.7693 172.041 75.7762C170.552 73.7807 169.733 71.423 169.583 68.7039L169.324 63.9774C169.191 61.5604 169.735 59.3004 170.957 57.1981C172.178 55.0959 173.873 53.3789 176.041 52.0467C178.208 50.6713 180.666 49.907 183.417 49.7547ZM183.623 57.0164C182.849 57.0593 182.104 57.252 181.39 57.5946C180.717 57.8916 180.16 58.3558 179.72 58.9862C179.321 59.571 179.145 60.295 179.193 61.158L179.279 62.7118L187.274 62.2694C187.747 62.2432 188.085 62.1162 188.288 61.8885C188.491 61.6608 188.576 61.2447 188.542 60.6405C188.495 59.7773 188.219 59.0777 187.715 58.5428C187.252 57.9626 186.649 57.563 185.904 57.3446C185.2 57.0806 184.439 56.9713 183.623 57.0164Z" fill="#8A50F6"/>
<path d="M220.626 47.6942C221.572 47.6418 222.413 48.0283 223.148 48.8534C223.926 49.6761 224.348 50.6704 224.412 51.8358C224.478 53.0442 224.169 54.1001 223.486 55.0037C222.846 55.905 222.052 56.382 221.107 56.4344L219.237 56.5379C218.076 56.6022 216.981 57.0744 215.952 57.9539C214.92 58.7903 214.099 59.9398 213.49 61.4022C212.88 62.8646 212.63 64.5886 212.739 66.5741L213.272 76.285C213.315 77.0618 212.86 77.8017 211.907 78.5037C210.954 79.2059 209.767 79.5961 208.349 79.6746C206.931 79.7532 205.731 79.4952 204.749 78.9002C203.811 78.3028 203.32 77.6156 203.278 76.8387L201.923 52.1717C201.874 51.2654 202.285 50.5064 203.157 49.8953C204.072 49.282 205.238 48.9358 206.657 48.8573C207.903 48.7883 208.971 49.0109 209.862 49.5243C210.752 50.0378 211.223 50.7477 211.273 51.6541L211.404 54.0496C211.781 53.0763 212.334 52.1364 213.06 51.2303C213.827 50.2789 214.689 49.4955 215.647 48.8797C216.645 48.2183 217.683 47.8572 218.757 47.7977L220.626 47.6942Z" fill="#8A50F6"/>
<path d="M242.219 29.2244C243.465 29.1555 244.414 29.5578 245.066 30.4305C245.758 31.258 246.133 32.1905 246.19 33.2264C246.249 34.3053 245.98 35.2943 245.382 36.1932C244.828 37.0896 243.928 37.5724 242.681 37.6414L240.231 37.7772C239.543 37.8153 238.927 37.9795 238.382 38.2694C237.881 38.5569 237.494 38.9683 237.221 39.5028C236.947 39.9941 236.832 40.6498 236.877 41.4696L237.19 47.1668L244.476 46.7635C245.293 46.7184 245.916 47.0735 246.345 47.8289C246.815 48.5388 247.074 49.3252 247.122 50.1883C247.171 51.0947 247.001 51.9269 246.612 52.6844C246.265 53.4396 245.683 53.8404 244.867 53.8856L237.581 54.2889L238.715 74.9412C238.765 75.8476 238.289 76.6101 237.289 77.2284C236.331 77.8442 235.164 78.1903 233.789 78.2664C232.413 78.3426 231.237 78.1258 230.26 77.617C229.284 77.1083 228.771 76.4011 228.721 75.495L226.944 43.1239C226.806 40.6205 227.2 38.3684 228.124 36.369C229.047 34.3265 230.338 32.6967 231.996 31.4793C233.653 30.2621 235.514 29.5965 237.577 29.4823L242.219 29.2244Z" fill="#8A50F6"/>
</svg>
