<svg width="115" height="100" viewBox="0 0 115 100" fill="none" xmlns="http://www.w3.org/2000/svg">
<path d="M80.4263 81.4552C80.4263 83.9652 70.0014 86 57.1417 86C44.282 86 33.8571 83.9652 33.8571 81.4552C33.8571 78.9453 44.282 76.9105 57.1417 76.9105C70.0014 76.9105 80.4263 78.9453 80.4263 81.4552Z" fill="black"/>
<path fill-rule="evenodd" clip-rule="evenodd" d="M33.0023 36.8601C33.4308 5.0465 81 5.04675 81 36.8601C81 58.5895 57.0011 81.4555 57.0011 81.4555C57.0011 81.4555 32.7288 57.1674 33.0023 36.8601ZM56.858 23.5085C48.9686 23.5085 42.573 29.8671 42.573 37.7109C42.573 45.5546 48.9686 51.9132 56.858 51.9132C64.7474 51.9132 71.143 45.5546 71.1431 37.7109C71.1431 29.8672 64.7474 23.5086 56.858 23.5085Z" fill="#854FEA"/>
</svg>
