<svg width="115" height="100" viewBox="0 0 115 100" fill="none" xmlns="http://www.w3.org/2000/svg">
<path d="M86.6364 45.1907C90.2085 45.1907 86.6364 47.9835 86.6364 51.7833V65.062C86.6364 69.1466 88.3093 72.6582 84.4906 72.2307L74.7262 71.3707C71.5373 71.0136 69.0922 68.2315 68.9426 64.8568L68.9352 64.5287V55.8266C68.9352 54.2796 68.7881 51.599 69.6893 50.3847L72.6898 46.3413C73.9163 44.6887 83.8522 44.9031 85.8316 44.903L86.6364 45.1907Z" fill="#854FEA"/>
<path d="M25.4866 44.6154C21.9146 44.6154 26.5594 47.4171 26.5594 51.2169V64.4956C26.5594 68.5803 21.9361 70.0692 25.7548 69.6418C25.7548 69.6418 36.9699 71.3916 38.4697 70.8043C39.9694 70.2171 44.1036 67.6652 44.2533 64.2905L44.2606 63.9624V55.2603C44.2606 53.7132 44.4077 51.0326 43.5066 49.8184L40.5061 45.775C39.2796 44.1224 29.6115 45.1908 27.6322 45.1907L25.4866 44.6154Z" fill="#854FEA"/>
<path d="M75.9082 17C76.8396 17 77.7164 17.4717 78.2733 18.2726L90.074 35.2445L90.1385 35.3411C90.4515 35.8285 90.6311 36.4013 90.656 36.9941L91.997 68.9243C92.0328 69.7787 91.7447 70.6123 91.1982 71.2352L82.6158 81.0156C82.1037 81.5991 81.4043 81.9525 80.6588 82.0044L66.4442 82.9938C66.3806 82.9982 66.3167 83 66.253 83H57.4024C55.8265 83 54.5288 81.6719 54.4553 79.9835L54.2374 74.9669C54.1999 74.1031 54.4932 73.2602 55.0499 72.6347C55.6066 72.0091 56.3782 71.6554 57.1845 71.6554H65.7669L65.9078 71.6588C67.356 71.7322 68.5493 72.9305 68.7008 74.4921L68.8936 76.481L79.1161 75.7697L86.0463 67.872L84.8022 38.2492L74.4278 23.3285H37.7358L27.9004 38.1469V72.806H22V37.1362C22 36.4784 22.1912 35.8371 22.5469 35.3012L33.8113 18.3293L33.9187 18.177C34.4766 17.4353 35.3197 17 36.2146 17H75.9082Z" fill="#00005F"/>
</svg>
