<svg width="115" height="100" viewBox="0 0 115 100" fill="none" xmlns="http://www.w3.org/2000/svg">
<path fill-rule="evenodd" clip-rule="evenodd" d="M86.8865 11C93.5766 11 99 16.422 99 23.1103C99 29.7987 93.5766 35.2207 86.8865 35.2207C80.1964 35.2207 74.773 29.7987 74.773 23.1103C74.773 16.422 80.1964 11 86.8865 11ZM85.6209 13.6135C80.9269 14.2327 77.3042 18.2485 77.3042 23.1103C77.3042 28.4011 81.5943 32.6901 86.8865 32.6901C89.8646 32.6901 92.5251 31.3318 94.2826 29.2011L86.218 24.1846C85.8468 23.9537 85.6209 23.5475 85.6209 23.1103V13.6135ZM88.1521 22.4074L95.6217 27.054C96.1658 25.8513 96.4688 24.5162 96.4688 23.1103C96.4688 18.2485 92.8461 14.2327 88.1521 13.6135V22.4074Z" fill="#00005F"/>
<path d="M88.1521 22.4074L95.6217 27.054C96.1658 25.8513 96.4688 24.5162 96.4688 23.1103C96.4688 18.2485 92.8461 14.2327 88.1521 13.6135V22.4074Z" fill="#854FEA"/>
<path d="M85.6209 13.6135C80.9269 14.2327 77.3042 18.2485 77.3042 23.1103C77.3042 28.4011 81.5943 32.6901 86.8865 32.6901C89.8646 32.6901 92.5251 31.3318 94.2826 29.2011L86.218 24.1846C85.8468 23.9537 85.6209 23.5475 85.6209 23.1103V13.6135Z" fill="#D4D4FF"/>
<path d="M90.7021 64.0964C90.7021 64.7687 90.1592 65.3114 89.4867 65.3114C88.8142 65.3114 88.2714 64.7687 88.2714 64.0964C88.2714 58.9204 86.9588 52.3188 85.1439 48.4064C84.8603 47.7989 85.1277 47.078 85.7354 46.7945C86.343 46.511 87.0641 46.7783 87.3477 47.3858C89.3247 51.6546 90.7021 58.5235 90.7021 64.0964Z" fill="#D4D4FF"/>
<path fill-rule="evenodd" clip-rule="evenodd" d="M68.7935 47.3291C68.8097 47.5154 68.8259 47.7017 68.8259 47.8961C68.8259 50.796 66.46 53.1612 63.5594 53.1612C60.6588 53.1612 58.2929 50.796 58.2929 47.8961C58.2929 44.9962 60.6588 42.631 63.5594 42.631C64.8315 42.631 66.0549 43.0927 67.0191 43.9351C68.0238 44.8099 68.6557 46.025 68.7935 47.3291ZM63.5513 46.6649C64.2238 46.6649 64.7828 47.2238 64.7828 47.8961C64.7828 48.5684 64.2238 49.1273 63.5513 49.1273C62.8788 49.1273 62.3197 48.5684 62.3197 47.8961C62.3197 47.2238 62.8788 46.6649 63.5513 46.6649Z" fill="#D4D4FF"/>
<path fill-rule="evenodd" clip-rule="evenodd" d="M63.5513 46.6649C64.2238 46.6649 64.7828 47.2238 64.7828 47.8961C64.7828 48.5684 64.2238 49.1273 63.5513 49.1273C62.8788 49.1273 62.3197 48.5684 62.3197 47.8961C62.3197 47.2238 62.8788 46.6649 63.5513 46.6649ZM32.9408 68.2923C31.3609 62.5898 29.9349 56.9764 29.9349 51.1362C29.9349 47.9366 30.6236 45.1258 31.6607 42.5662C31.6607 42.5581 31.6607 42.5419 31.6688 42.5338C31.6688 42.5297 31.6708 42.5277 31.6728 42.5257C31.6749 42.5237 31.6769 42.5216 31.6769 42.5176C32.8922 39.5043 34.5775 36.8556 36.1574 34.3931C36.7084 33.5345 37.2351 32.7083 37.7293 31.8902L35.1447 29.3143C34.8611 29.0308 34.7314 28.6258 34.8125 28.2289C34.8935 27.832 35.1528 27.4999 35.5255 27.3379C44.6892 23.3688 51.5923 20.7606 63.5594 20.7606C74.8945 20.7606 86.1972 30.1648 90.5886 39.2694V39.2775C94.4777 47.2562 97.192 60.1354 97.192 70.5846C97.192 70.5927 97.19 70.5988 97.188 70.6049C97.1859 70.611 97.1839 70.6171 97.1839 70.6252C97.1801 70.6482 97.178 70.6695 97.1761 70.6898C97.174 70.7122 97.172 70.7335 97.1677 70.7547L97.1434 70.8763C97.1434 70.8844 97.1434 70.9006 97.1353 70.9168L94.3562 80.637C93.9754 81.9816 93.1004 83.1156 91.9012 83.8365L85.2492 87.8299C85.0629 87.9433 84.8441 88 84.6254 88C84.4876 88 84.3499 87.9757 84.2202 87.9271L34.9421 70.4388C33.9698 70.0986 33.2163 69.2886 32.9408 68.2923ZM89.4867 65.3114C90.1592 65.3114 90.7021 64.7687 90.7021 64.0964C90.7021 58.5235 89.3247 51.6546 87.3477 47.3858C87.0641 46.7783 86.343 46.511 85.7354 46.7945C85.1277 47.078 84.8603 47.7989 85.1439 48.4064C86.9588 52.3188 88.2714 58.9204 88.2714 64.0964C88.2714 64.7687 88.8142 65.3114 89.4867 65.3114ZM68.8259 47.8961C68.8259 47.7017 68.8097 47.5154 68.7935 47.3291C68.6557 46.025 68.0238 44.8099 67.0191 43.9351C66.0549 43.0927 64.8315 42.631 63.5594 42.631C60.6588 42.631 58.2929 44.9962 58.2929 47.8961C58.2929 50.796 60.6588 53.1612 63.5594 53.1612C66.46 53.1612 68.8259 50.796 68.8259 47.8961ZM32.3575 51.1362C32.3575 52.4889 32.4466 53.8416 32.5924 55.1943L32.9814 57.8917C33.5242 61.1318 34.3749 64.3718 35.2824 67.6362C35.3553 67.8711 35.5255 68.0655 35.7604 68.1465L54.4038 74.7643L57.8311 71.338C58.301 70.8601 59.0707 70.8601 59.5488 71.338C60.0268 71.8078 60.0268 72.5773 59.5488 73.0552L56.9398 75.6634L62.7735 77.7371L65.9334 74.578C66.4033 74.1001 67.173 74.1001 67.6511 74.578C68.1291 75.0478 68.1291 75.8174 67.6511 76.2953L65.3095 78.6362L71.1431 80.7099L74.0357 77.8181C74.5056 77.3402 75.2753 77.3402 75.7533 77.8181C76.2314 78.2879 76.2314 79.0574 75.7533 79.5353L73.6792 81.609L84.4795 85.4403L90.6454 81.7467C91.3178 81.3498 91.804 80.7099 92.0146 79.9646L94.3643 71.7511C91.091 71.6539 87.8177 71.2651 84.6254 70.5685C80.9145 69.7503 77.2766 68.5272 73.8169 66.9315L64.4912 62.6384C63.1867 62.0228 62.3441 60.7025 62.3441 59.2687V55.494C58.6737 54.9108 55.8622 51.7356 55.8622 47.9042C55.8622 43.6597 59.3138 40.209 63.5594 40.209C65.2204 40.209 66.8327 40.7518 68.1615 41.7481L87.6151 38.8563C83.1264 30.9182 73.3389 23.1987 63.5594 23.1987C52.7347 23.1987 46.4393 25.321 38.1344 28.8688L40.1114 30.8453C40.5003 31.2341 40.5813 31.8335 40.3058 32.3114C39.6495 33.4373 38.9446 34.547 38.1992 35.7135C36.8218 37.8681 35.4282 40.0632 34.3425 42.4528L33.4351 44.7127C32.7788 46.6811 32.3656 48.7952 32.3575 51.1362Z" fill="#00005F"/>
<path d="M32.5924 55.1943C32.4466 53.8416 32.3575 52.4889 32.3575 51.1362C32.3656 48.7952 32.7788 46.6811 33.4351 44.7127L34.3425 42.4528C35.4282 40.0632 36.8218 37.8681 38.1992 35.7135C38.9446 34.547 39.6495 33.4373 40.3058 32.3114C40.5813 31.8335 40.5003 31.2341 40.1114 30.8453L38.1344 28.8688C46.4393 25.321 52.7347 23.1987 63.5594 23.1987C73.3389 23.1987 83.1264 30.9182 87.6151 38.8563L68.1615 41.7481C66.8327 40.7518 65.2204 40.209 63.5594 40.209C59.3138 40.209 55.8622 43.6597 55.8622 47.9042C55.8622 51.7356 58.6737 54.9108 62.3441 55.494V59.2687C62.3441 60.7025 63.1867 62.0228 64.4912 62.6384L73.8169 66.9315C77.2766 68.5272 80.9145 69.7503 84.6254 70.5685C87.8177 71.2651 91.091 71.6539 94.3643 71.7511L92.0146 79.9646C91.804 80.7099 91.3178 81.3498 90.6454 81.7467L84.4795 85.4403L73.6792 81.609L75.7533 79.5353C76.2314 79.0574 76.2314 78.2879 75.7533 77.8181C75.2753 77.3402 74.5056 77.3402 74.0357 77.8181L71.1431 80.7099L65.3095 78.6362L67.6511 76.2953C68.1291 75.8174 68.1291 75.0478 67.6511 74.578C67.173 74.1001 66.4033 74.1001 65.9334 74.578L62.7735 77.7371L56.9398 75.6634L59.5488 73.0552C60.0268 72.5773 60.0268 71.8078 59.5488 71.338C59.0707 70.8601 58.301 70.8601 57.8311 71.338L54.4038 74.7643L35.7604 68.1465C35.5255 68.0655 35.3553 67.8711 35.2824 67.6362C34.3749 64.3718 33.5242 61.1318 32.9814 57.8917L32.5924 55.1943Z" fill="#854FEA"/>
<path d="M18.2074 64.0513L18.1348 56.7511L38.182 56.48L38.2546 63.7801L18.2074 64.0513Z" fill="#00005F"/>
<path d="M16.0378 40.7025L16 33.4014L41.3105 32.9823L41.3483 40.2834L16.0378 40.7025Z" fill="#00005F"/>
<path d="M21.4618 51.7828L21.3944 44.4825L42.2397 44.1889L42.307 51.4892L21.4618 51.7828Z" fill="#00005F"/>
</svg>
