<svg width="96" height="100" viewBox="0 0 96 100" fill="none" xmlns="http://www.w3.org/2000/svg">
<path d="M51.0615 0C58.2887 2.28546e-05 64.9603 1.23917 71.0752 3.71777C73.4157 4.64359 75.6394 5.70849 77.7451 6.91211C83.3386 10.1095 83.3906 17.6559 78.8496 22.2266L77.1006 23.9873C73.0507 28.0635 66.282 27.3543 61.1963 24.6797C57.9891 22.9704 54.4826 22.1153 50.6768 22.1152C47.17 22.1152 43.9194 22.8202 40.9258 24.2305C37.9323 25.6407 35.3026 27.6067 33.0361 30.1279C30.8123 32.6493 29.08 35.5985 27.8398 38.9746C26.5998 42.3505 25.9795 46.0042 25.9795 49.9355C25.9795 53.9099 26.5997 57.5858 27.8398 60.9619C29.08 64.3379 30.8124 67.308 33.0361 69.8721C35.3026 72.3929 37.9323 74.3593 40.9258 75.7695C43.9194 77.1798 47.17 77.8838 50.6768 77.8838C54.4825 77.8837 57.9891 77.0299 61.1963 75.3203C64.4037 73.6116 69.3167 69.2303 70.0635 68.75C70.1017 68.7177 86.5793 54.7884 93.9072 62.5C101.243 70.2206 86.9375 85.6621 86.9375 85.6621C82.4051 90.0211 77.4044 93.9108 71.2031 96.3457C65.0452 98.7825 58.3313 100 51.0615 100C43.7487 100 36.9702 98.7612 30.7266 96.2822C24.5256 93.7612 19.1157 90.2567 14.4971 85.7695C9.92136 81.2394 6.35104 75.9406 3.78516 69.8721C1.26206 63.8037 1.11725e-07 57.1795 0 50C0 42.8205 1.26206 36.1963 3.78516 30.1279C6.35101 24.0598 9.92143 18.782 14.4971 14.2949C19.1157 9.765 24.5257 6.26089 30.7266 3.78223C36.9702 1.26089 43.7487 0 51.0615 0Z" fill="white"/>
</svg>
