<svg width="500" height="432" viewBox="0 0 500 432" fill="none" xmlns="http://www.w3.org/2000/svg">
<path d="M210.54 248.054L243.656 179.324H183.418L78.9299 187.309L66.6539 193.013L52.665 201.853C52.665 201.853 45.8263 206.981 41.8165 210.694C37.8067 214.407 35.4805 216.906 31.8245 221.246C28.1684 225.586 24.4065 230.647 21.2614 235.791C18.1164 240.935 15.5656 246.295 14.1242 249.48C12.6829 252.665 11.9307 254.479 10.6984 257.75C9.46609 261.022 7.24441 267.916 5.55963 274.576C3.87484 281.237 2.90357 285.981 1.84829 293.399C0.793012 300.816 0.382638 306.015 0.135367 313.362C-0.111905 320.709 -0.0225166 324.846 0.420854 332.184C0.864225 339.522 1.47444 350.406 2.41927 351.007C3.3641 351.607 37.5342 352.433 37.5342 352.433L82.3557 353.858L130.318 354.714L175.71 355.855C175.71 355.855 298.135 360.839 298.184 358.992C298.233 357.144 301.325 345.303 301.325 345.303L305.321 333.61L316.741 310.225L325.305 297.676L333.585 287.98L342.72 279.424L352.427 272.295L368.985 264.309L386.971 260.032L408.097 259.461C408.097 259.461 462.059 262.199 464.623 260.887C467.187 259.575 423.799 116.012 423.799 116.012L396.106 115.727H371.84L352.712 116.012V212.12L341.293 222.957L325.305 235.22L313.315 242.92L293.902 253.187L279.628 259.461L261.071 266.021L240.516 270.869L228.525 271.439L222.816 270.298L215.964 266.876L212.823 263.454L209.969 256.895L209.683 252.332L210.54 248.054Z" fill="#854FEA"/>
<path d="M364.988 89.7744L371.84 115.727H396.106C396.106 115.727 386.177 67.8354 382.688 65.8187C379.199 63.8019 313.214 65.4055 312.459 65.8187C311.703 66.2318 311.269 89.2152 312.459 89.7744C313.648 90.3337 364.988 89.7744 364.988 89.7744Z" fill="#00005F"/>
<path d="M185.988 147.953L40.6746 161.071C40.6746 161.071 38.754 189.065 41.2455 190.161C43.737 191.257 78.9299 187.309 78.9299 187.309L183.418 179.324H243.656C243.656 179.324 254.689 179.589 255.932 179.324C257.175 179.058 257.883 178.916 259.072 178.468C260.262 178.02 262.185 177.119 263.64 175.901C265.096 174.683 265.782 173.807 266.781 172.194C267.779 170.581 268.738 168.238 269.064 165.92C269.391 163.601 269.299 162.214 268.779 159.931C268.259 157.648 267.515 155.726 265.924 153.657C264.333 151.587 262.455 150.217 260.785 149.379C259.116 148.54 258.012 148.476 256.218 147.953C254.423 147.43 185.988 147.953 185.988 147.953Z" fill="#00005F"/>
<path d="M410.952 277.143L392.68 276.287L383.259 277.713L371.269 281.421L360.42 286.839L352.998 291.973L339.009 306.232L333.585 314.503L327.875 326.766L324.734 338.173L323.307 348.725V359.847L324.734 370.114L328.446 382.377L332.728 391.788L344.433 408.044L350.143 413.748L359.278 420.878L368.414 426.011L379.834 430.004L392.395 432H403.244L412.379 430.574L424.084 426.867L433.505 422.018L440.928 416.885L451.776 406.903L458.057 399.489L463.196 391.503L468.62 379.811L472.046 366.977L473.188 358.422L472.902 345.873L469.762 330.188L463.196 314.788L454.631 302.239L441.213 289.976L427.795 282.276L410.952 277.143Z" fill="#00005F"/>
<path d="M175.139 368.403L175.71 355.855L130.318 354.714V361.559L129.176 365.551L126.321 371.255L122.038 375.818L118.613 378.385L112.332 380.951L102.054 381.522L93.7752 378.67L89.7784 375.818L86.0671 371.54L82.3557 362.984V353.858L37.5342 352.433L37.2487 367.262L39.5326 379.24L42.9585 389.222L51.5231 403.766L60.0877 412.892L72.3637 421.448L85.4961 426.867L98.0575 429.148H110.333L128.034 425.155L139.453 419.737L152.015 410.611L163.149 398.063L170.286 384.944L175.139 368.403Z" fill="#00005F"/>
<path d="M400.96 327.621H395.821L388.969 329.332L382.688 332.755L378.121 337.032L374.124 344.162L372.411 351.007V356.996L374.124 364.125L378.406 371.255L385.258 376.959L390.682 379.24L395.535 380.096L404.1 379.525L411.523 376.388L418.66 370.114L422.086 363.84L423.799 356.71L422.657 346.158L418.089 337.032L412.665 332.184L407.24 329.332L400.96 327.621Z" fill="#FEFEFD"/>
<path fill-rule="evenodd" clip-rule="evenodd" d="M40.6746 161.071C40.6746 161.071 11.6333 164.531 6.98706 163.638C2.34087 162.745 2.87767 10.9838 6.98706 4.50325C11.0965 -1.9773 178.907 -1.00523 185.988 4.50325C193.068 10.0117 185.988 147.953 185.988 147.953L40.6746 161.071Z" fill="#854FEA"/>
<path d="M130.318 354.714L82.3557 353.858V362.984L86.0671 371.54L89.7784 375.818L93.7752 378.67L102.054 381.522L112.332 380.951L118.613 378.385L122.038 375.818L126.321 371.255L129.176 365.551L130.318 361.559V354.714Z" fill="#FEFEFD"/>
<path d="M96.9929 30.9059C103.291 30.9059 109.106 31.9897 114.435 34.1576C116.475 34.9673 118.413 35.8987 120.248 36.9515C125.122 39.748 125.168 46.3484 121.21 50.3461L119.686 51.8861C116.156 55.4513 110.258 54.831 105.825 52.4917C103.03 50.9967 99.9744 50.2488 96.6576 50.2487C93.6014 50.2487 90.7685 50.8653 88.1596 52.0988C85.5508 53.3322 83.2589 55.0518 81.2837 57.257C79.3456 59.4622 77.8359 62.0417 76.7551 64.9946C75.6744 67.9473 75.1339 71.143 75.1338 74.5815C75.1338 78.0576 75.6743 81.2727 76.7551 84.2256C77.8359 87.1784 79.3457 89.7762 81.2837 92.0188C83.2589 94.2236 85.5508 95.9435 88.1596 97.1769C90.7685 98.4104 93.6014 99.0261 96.6576 99.0261C99.9743 99.0261 103.03 98.2793 105.825 96.784C108.621 95.2895 112.902 91.4574 113.553 91.0374C113.586 91.0091 127.947 78.8259 134.333 85.5709C140.727 92.3236 128.259 105.829 128.259 105.829C124.309 109.642 119.951 113.044 114.546 115.174C109.18 117.305 103.328 118.37 96.9929 118.37C90.6198 118.37 84.7123 117.286 79.2709 115.118C73.8668 112.913 69.152 109.848 65.1269 105.923C61.1391 101.961 58.0276 97.3266 55.7914 92.0188C53.5925 86.7111 52.4926 80.9173 52.4926 74.6379C52.4926 68.3584 53.5925 62.5646 55.7914 57.257C58.0275 51.9495 61.1392 47.3333 65.1269 43.4088C69.152 39.4467 73.8668 36.3819 79.2709 34.214C84.7123 32.0087 90.6198 30.9059 96.9929 30.9059Z" fill="white"/>
<path d="M457.668 198.136C456.969 194.811 459.815 191.815 463.176 192.337L495.883 197.42C498.253 197.788 500 199.826 500 202.221V244.908C500 247.308 498.246 249.348 495.872 249.711L473.906 253.07C471.354 253.461 468.94 251.79 468.41 249.265L457.668 198.136Z" fill="#854FEA"/>
</svg>
