<svg width="35" height="36" viewBox="0 0 35 36" fill="none" xmlns="http://www.w3.org/2000/svg">
<path d="M35 18.4C35 16.92 34.8809 15.84 34.623 14.72H17.8571V21.3999H27.6983C27.5 23.06 26.4286 25.56 24.0476 27.2399L24.0142 27.4635L29.3153 31.6031L29.6825 31.64C33.0555 28.5 35 23.88 35 18.4Z" fill="#4285F4"/>
<path d="M17.8571 36C22.6785 36 26.7261 34.3999 29.6825 31.64L24.0476 27.2399C22.5397 28.2999 20.5158 29.0399 17.8571 29.0399C13.135 29.0399 9.12704 25.9 7.69834 21.56L7.48892 21.5779L1.9768 25.8779L1.90472 26.0799C4.84119 31.9599 10.873 36 17.8571 36Z" fill="#34A853"/>
<path d="M7.69834 21.56C7.32136 20.44 7.10319 19.2399 7.10319 18C7.10319 16.7599 7.32136 15.56 7.6785 14.44L7.66852 14.2015L2.08732 9.83237L1.90472 9.91992C0.694452 12.36 0 15.1 0 18C0 20.9 0.694452 23.6399 1.90472 26.0799L7.69834 21.56Z" fill="#FBBC05"/>
<path d="M17.8571 6.95995C21.2103 6.95995 23.4721 8.41995 24.7619 9.64003L29.8015 4.68C26.7064 1.78001 22.6785 0 17.8571 0C10.873 0 4.84119 4.03997 1.90472 9.91992L7.6785 14.44C9.12704 10.1 13.135 6.95995 17.8571 6.95995Z" fill="#EB4335"/>
</svg>
