<svg width="640" height="640" viewBox="0 0 640 640" fill="none" xmlns="http://www.w3.org/2000/svg">
<path d="M442.9 116C505.354 116 556 166.646 556 229.1V231.7C556 280.445 525.02 336.4 481.485 389.275C438.642 441.311 386.67 486.753 351.018 513.962C342.367 520.52 331.492 524 320 524C308.376 524 297.513 520.55 289.125 514.071L289.079 514.035L289.032 514L285.643 511.396C250.137 483.948 200.038 439.709 158.515 389.275C114.98 336.4 84.0001 280.445 84 231.7V229.1C84.0002 166.646 134.646 116 197.1 116C233.396 116 267.559 133.431 288.789 162.813L288.797 162.824L288.805 162.836L303.805 183.535L320 205.885L336.195 183.535L351.195 162.836L351.203 162.824L351.211 162.813C372.441 133.431 406.604 116 442.9 116Z" fill="currentColor" stroke="#f0f0f0" stroke-width="40"/>
</svg>
