<svg width="372" height="306" viewBox="0 0 372 306" fill="none" xmlns="http://www.w3.org/2000/svg">
<path d="M262.524 77.5451C286.004 78.365 304.395 98.0727 303.575 121.567L297.138 305.892L269.771 276.544L240.423 303.912L213.055 274.564L183.707 301.931L156.34 272.583L126.992 299.951L99.6244 270.603L70.2764 297.97L76.7132 113.645C77.1072 102.363 81.9661 91.7002 90.2218 84.0016C98.4775 76.303 109.454 72.1998 120.735 72.5937L262.524 77.5451Z" fill="#7844DB"/>
<path d="M183.493 121.814L277.436 125.094L276.773 144.083L182.83 140.802L183.493 121.814Z" fill="white"/>
<path d="M132.163 159.045L276.075 164.071L275.412 183.059L131.499 178.034L132.163 159.045Z" fill="white"/>
<path d="M142.794 198.44L274.714 203.047L274.051 222.035L141.957 222.426L142.794 198.44Z" fill="white"/>
<path d="M126.368 111.4L132.276 130.722C132.733 132.217 132.583 133.677 131.826 135.104C131.069 136.53 129.944 137.471 128.451 137.927L106.401 144.669C104.908 145.125 103.449 144.974 102.023 144.215C100.598 143.456 99.6573 142.329 99.2002 140.834L93.293 121.512C92.8359 120.017 92.9858 118.556 93.7428 117.13C94.4998 115.704 95.6247 114.763 97.1177 114.306L119.168 107.565C120.661 107.108 122.12 107.26 123.545 108.019C124.97 108.778 125.911 109.905 126.368 111.4ZM101.104 19.5218L118.946 86.505C119.345 88.0177 119.152 89.4915 118.367 90.9265C117.581 92.3614 116.441 93.3071 114.949 93.7635L92.8983 100.505C91.4053 100.961 89.9319 100.815 88.4781 100.064C87.0244 99.314 86.0402 98.2001 85.5257 96.7225L62.8605 31.214C62.346 29.7364 62.4529 28.289 63.1812 26.8716C63.9094 25.4542 65.0201 24.5173 66.5131 24.0608L94.0758 15.634C95.5688 15.1776 97.0135 15.3333 98.4098 16.1011C99.8062 16.8689 100.704 18.0092 101.104 19.5218Z" fill="#0000AD"/>
<path d="M317.645 37L338.628 55.8929L292.151 107.51L271.168 88.6174L317.645 37Z" fill="#0000AD"/>
<path d="M260.565 74.2255L233.169 67.3949L249.972 0L277.368 6.83065L260.565 74.2255Z" fill="#0000AD"/>
</svg>
