<svg width="35" height="35" viewBox="0 0 35 35" fill="none" xmlns="http://www.w3.org/2000/svg">
<path d="M33.5392 24.1126L30.4139 20.9873C29.4823 20.0632 28.2249 19.5422 26.9127 19.5366C25.6005 19.531 24.3387 20.0413 23.3993 20.9575C22.898 21.4616 22.2367 21.7753 21.5291 21.8445C20.8216 21.9138 20.1121 21.7342 19.5226 21.3368C17.196 19.7841 15.1973 17.7892 13.6401 15.4656C13.2497 14.8696 13.0766 14.1572 13.1501 13.4484C13.2236 12.7397 13.5391 12.078 14.0435 11.5747C14.9514 10.6344 15.4551 9.37604 15.4469 8.069C15.4386 6.76196 14.9191 5.51007 13.9995 4.58126L10.8743 1.45602C9.93862 0.523574 8.67153 0 7.35059 0C6.02965 0 4.76256 0.523574 3.82691 1.45602L2.92771 2.35666C-1.76011 7.04452 -1.40924 16.9004 8.34426 26.6483C14.2253 32.5308 20.1448 34.9941 24.9448 34.9941C26.3578 35.0411 27.766 34.8065 29.0874 34.3039C30.4088 33.8012 31.6169 33.0406 32.6414 32.0663L33.542 31.1657C34.4761 30.2296 35.0005 28.961 35 27.6385C34.9995 26.3161 34.474 25.0479 33.5392 24.1126ZM31.5305 29.157L30.6299 30.0576C26.9364 33.7511 18.7839 33.0763 10.3501 24.641C1.91627 16.2057 1.24009 8.04743 4.93352 4.35397L5.82705 3.45475C6.22936 3.05389 6.77414 2.82882 7.34207 2.82882C7.90999 2.82882 8.45477 3.05389 8.85708 3.45475L11.9823 6.57999C12.3773 6.97698 12.6015 7.51262 12.6071 8.07262C12.6127 8.63261 12.3992 9.17261 12.0121 9.57738C11.0522 10.5434 10.4535 11.81 10.3161 13.1649C10.1788 14.5198 10.5113 15.8807 11.2578 17.0197C13.0272 19.6675 15.3025 21.9394 17.9529 23.7049C19.0884 24.4515 20.4458 24.786 21.7983 24.6523C23.1507 24.5186 24.4163 23.925 25.3838 22.9705C25.7878 22.5788 26.3293 22.3614 26.8919 22.3648C27.4545 22.3683 27.9933 22.5924 28.3925 22.9889L31.5177 26.1142C31.7191 26.3127 31.8793 26.549 31.989 26.8097C32.0987 27.0703 32.1558 27.3501 32.157 27.6329C32.1582 27.9157 32.1035 28.196 31.9959 28.4575C31.8884 28.7191 31.7302 28.9568 31.5305 29.157Z" fill="#2C2C2C"/>
</svg>
