<svg width="191" height="191" viewBox="0 0 191 191" fill="none" xmlns="http://www.w3.org/2000/svg">
<path d="M0 36C0 16.1178 16.1178 0 36 0H155C174.882 0 191 16.1178 191 36V155C191 174.882 174.882 191 155 191H36C16.1178 191 0 174.882 0 155V36Z" fill="url(#paint0_linear_168_188)"/>
<path d="M99.0615 45C106.289 45 112.96 46.2392 119.075 48.7178C121.416 49.6436 123.639 50.7085 125.745 51.9121C131.339 55.1095 131.391 62.6559 126.85 67.2266L125.101 68.9873C121.051 73.0635 114.282 72.3543 109.196 69.6797C105.989 67.9704 102.483 67.1153 98.6768 67.1152C95.17 67.1152 91.9194 67.8202 88.9258 69.2305C85.9323 70.6407 83.3026 72.6067 81.0361 75.1279C78.8123 77.6493 77.08 80.5985 75.8398 83.9746C74.5998 87.3505 73.9795 91.0042 73.9795 94.9355C73.9795 98.9099 74.5997 102.586 75.8398 105.962C77.08 109.338 78.8124 112.308 81.0361 114.872C83.3026 117.393 85.9323 119.359 88.9258 120.77C91.9194 122.18 95.17 122.884 98.6768 122.884C102.483 122.884 105.989 122.03 109.196 120.32C112.404 118.612 117.317 114.23 118.063 113.75C118.102 113.718 134.579 99.7884 141.907 107.5C149.243 115.221 134.938 130.662 134.938 130.662C130.405 135.021 125.404 138.911 119.203 141.346C113.045 143.782 106.331 145 99.0615 145C91.7487 145 84.9702 143.761 78.7266 141.282C72.5256 138.761 67.1157 135.257 62.4971 130.77C57.9214 126.239 54.351 120.941 51.7852 114.872C49.2621 108.804 48 102.179 48 95C48 87.8205 49.2621 81.1963 51.7852 75.1279C54.351 69.0598 57.9214 63.782 62.4971 59.2949C67.1157 54.765 72.5257 51.2609 78.7266 48.7822C84.9702 46.2609 91.7487 45 99.0615 45Z" fill="white"/>
<defs>
<linearGradient id="paint0_linear_168_188" x1="170.5" y1="48.5" x2="95.5" y2="191" gradientUnits="userSpaceOnUse">
<stop stop-color="#8747FF"/>
<stop offset="1" stop-color="#9D73ED"/>
</linearGradient>
</defs>
</svg>
